<svg width="876" height="1024" viewBox="0 0 876 1024" fill="none" xmlns="http://www.w3.org/2000/svg">
<g opacity="0.5">
<path d="M706.715 304.91C628.142 304.997 552.812 336.255 497.252 391.828C441.691 447.401 410.436 522.75 410.345 601.344V1023.97H495.026V601.344C495.088 545.205 517.41 491.382 557.095 451.685C596.78 411.989 650.587 389.659 706.711 389.597H875.241V304.91H706.715Z" fill="#C1F4F4"/>
<path d="M706.715 152.455C468.77 152.455 274.056 338.768 259.361 573.126V1023.98H342.618V601.324C342.734 504.771 381.133 412.207 449.39 343.937C517.647 275.668 610.19 237.267 706.715 237.16H875.245V152.473L706.715 152.455Z" fill="#C1F4F4"/>
<mask id="mask0_103_1254" style="mask-type:luminance" maskUnits="userSpaceOnUse" x="-190" y="0" width="1066" height="1024">
<path d="M-190 0V84.6876H400.665C367.726 104.296 336.722 126.987 308.07 152.455H-190V237.16H229.448C212.9 258.697 197.824 281.326 184.321 304.893H-190V389.597H144.784C122.601 448.394 109.842 510.326 106.979 573.104V1024H190.235V601.327C190.235 316.464 421.914 84.7049 706.732 84.7049H875.265V0H-190Z" fill="white"/>
</mask>
<g mask="url(#mask0_103_1254)">
<rect x="-1473.02" y="-1148.54" width="3651.54" height="2435.5" fill="#C1F4F4"/>
</g>
</g>
<path d="M607 618C607 543.994 666.994 484 741 484H875V1024H607V618Z" fill="#009393"/>
</svg>
