<?xml version="1.0" encoding="utf-8"?>
<!-- Generator: Adobe Illustrator 27.5.0, SVG Export Plug-In . SVG Version: 6.00 Build 0)  -->
<svg version="1.1" xmlns="http://www.w3.org/2000/svg" xmlns:xlink="http://www.w3.org/1999/xlink" x="0px" y="0px"
	 viewBox="0 0 3710 3710" style="enable-background:new 0 0 3710 3710;" xml:space="preserve">
<g id="Background">
	<g>
		<g>
			<rect style="fill:#FFFFFF;" width="3710" height="3710"/>
		</g>
	</g>
</g>
<g id="Illustration">
	<g>
		<path style="fill:#F4F7FA;" d="M3243.332,1624.188c-56.433-369.382-101.737-624.658-305.521-764.541
			c-343.734-235.948-727.615,147.086-1214.528-109.935c-239.737-126.547-248.723-273.268-451.76-292.743
			c-359.217-34.455-653.393,394.235-678.888,430.999c-154.902,223.374-206.645,495.746-143.849,755.419
			c40.785,168.661,68.346,343.218,60.781,516.527c-13.164,301.627-5.589,583.173,287.134,763.056
			c261.366,160.615,590.302,302.272,904.111,327.082c213.261,16.863,452.422-10.425,657.965-65.946
			C3406.277,2901.143,3320.924,2132.068,3243.332,1624.188z"/>
		<g>
			<g>
				<g>
					<g>
						<g>
							<defs>
								<path id="SVGID_1_" d="M1247.982,2544.124c-28.879,34.63-76.944,80.287-129.596,133.71l708.784,216.188
									c-47.213-233.187-125.95-482.553,103.588-839.659c107.718-167.584,369.181-451.158,313.896-675.505
									c-62.983-255.596-276.451-182.156-298.03-375.868c-33.728-302.769-250.184-543.005-538.235-439.306
									c-284.294,102.345-355.44,624.763-97.142,1247.846C1445.921,2279.524,1398.777,2363.296,1247.982,2544.124z"/>
							</defs>
							<use xlink:href="#SVGID_1_"  style="overflow:visible;fill:#D8DEE8;"/>
							<clipPath id="SVGID_00000132077650227693310030000001137024765239504288_">
								<use xlink:href="#SVGID_1_"  style="overflow:visible;"/>
							</clipPath>
							<g style="clip-path:url(#SVGID_00000132077650227693310030000001137024765239504288_);">
								<g>
									<path style="fill:#FCFDFE;" d="M1497.345,2748.534c19.843-94.397,33.772-184.437,48.519-279.765l4.923-31.781
										c4.273-46.341,9.744-91.916,15.035-135.991c11.947-99.522,23.232-193.528,21.708-295.397
										c0.567-5.85,1.4-11.487,2.287-17.458c3.159-21.322,6.423-43.37-2.71-66.33l-0.15-0.918
										c30.767-532.832-47.862-1080.934-233.706-1629.076l4.072-1.379c185.965,548.5,264.678,1096.996,233.954,1630.23
										c9.344,23.882,5.863,47.367,2.79,68.103c-0.875,5.918-1.704,11.507-2.247,17.009
										c1.537,101.914-9.765,196.059-21.73,295.731c-5.288,44.045-10.755,89.591-15.036,136.006l-4.942,31.912
										c-14.754,95.385-28.693,185.481-48.56,279.992L1497.345,2748.534z"/>
									<path style="fill:#FCFDFE;" d="M1563.922,2282.075c33.455-249.086,209.729-524.017,351.712-710.797
										c153.762-202.272,301.541-347.604,303.016-349.046l3.009,3.07c-1.473,1.443-149.066,146.593-302.641,348.625
										c-141.655,186.354-317.507,460.579-350.837,708.72L1563.922,2282.075z"/>
									<path style="fill:#FCFDFE;" d="M1562.737,1177.048c20.772-266.295,104.242-540.957,131.671-631.212
										c5.245-17.264,8.711-28.669,8.984-30.947l4.268,0.509c-0.303,2.549-3.023,11.556-9.14,31.69
										c-27.395,90.145-110.76,364.467-131.496,630.295L1562.737,1177.048z"/>
									<path style="fill:#FCFDFE;" d="M1592.84,1612.585c-54.042-240.459-487.67-512.845-492.043-515.569l2.271-3.648
										c4.389,2.731,439.533,276.082,493.964,518.277L1592.84,1612.585z"/>
								</g>
							</g>
						</g>
					</g>
					<g>
						<g>
							<defs>
								<path id="SVGID_00000096056151355920849880000002164684283987962783_" d="M1354.176,1775.327
									c-37.52,360.705,149.975,262.146,306.062,316.261c153.895,288.948,142.551,539.169-158.35,721.528l-302.268-81.678
									c-113.519-18.523-243.4-68.926-218.231-220.025c28.465-170.891,81.763-275.349-102.461-382.241
									c-184.221-106.893-249.712-270.574-150.849-436.665c104.039-174.784-61.079-445.772,94.954-552.877
									C1094.911,953.007,1393.244,1399.724,1354.176,1775.327z"/>
							</defs>
							<use xlink:href="#SVGID_00000096056151355920849880000002164684283987962783_"  style="overflow:visible;fill:#BFC8D6;"/>
							<clipPath id="SVGID_00000172407530275022705300000002474588051839712950_">
								<use xlink:href="#SVGID_00000096056151355920849880000002164684283987962783_"  style="overflow:visible;"/>
							</clipPath>
							<g style="clip-path:url(#SVGID_00000172407530275022705300000002474588051839712950_);">
								<g>
									<path style="fill:#FCFDFE;" d="M1355.841,2428.809c-112.144-155.383-205.321-324.405-276.943-502.374
										c-72.236-179.506-121.574-365.727-146.635-553.496c-14.371-107.669-20.724-216.405-18.878-323.187l4.681,0.083
										c-1.836,106.545,4.5,215.045,18.841,322.486c25.009,187.379,74.244,373.222,146.339,552.365
										c71.479,177.617,164.473,346.308,276.393,501.381L1355.841,2428.809z"/>
									<path style="fill:#FCFDFE;" d="M1001.835,2588.287l-1.631-4.393c60.503-22.482,130.525-37.369,208.122-44.244
										c36.976-3.278,73.418-4.045,108.316-2.281l-0.234,4.679c-34.683-1.755-70.908-0.992-107.666,2.27
										C1131.557,2551.155,1061.945,2565.949,1001.835,2588.287z"/>
									<path style="fill:#FCFDFE;" d="M1126.869,2036.152c-141.034-172.058-480.78-197.198-484.19-197.41l0.32-4.675
										c3.443,0.248,345.173,25.483,487.494,199.116L1126.869,2036.152z"/>
									<path style="fill:#FCFDFE;" d="M977.476,1612.449c-19.137-250.635,197.403-512.614,199.592-515.23l3.591,3.005
										c-2.177,2.604-217.502,263.15-198.511,511.87L977.476,1612.449z"/>
								</g>
							</g>
						</g>
					</g>
				</g>
			</g>
		</g>
		<g>
			<g>
				
					<linearGradient id="SVGID_00000137122994535519344950000003928020192018782089_" gradientUnits="userSpaceOnUse" x1="1717.2748" y1="2878.2332" x2="1533.1356" y2="2955.5718">
					<stop  offset="0" style="stop-color:#40447E"/>
					<stop  offset="0.9964" style="stop-color:#3C3B6B"/>
				</linearGradient>
				<path style="fill:url(#SVGID_00000137122994535519344950000003928020192018782089_);" d="M3231.82,2778.626l-2622.669-21.587
					v63.872c0,17.336,11.439,32.077,26.932,34.704l741.613,125.775c8.801,1.493,17.726,1.888,26.608,1.181l1799.017-143.405
					c16.061-1.28,28.5-16.067,28.5-33.878V2778.626z"/>
				<g>
					
						<linearGradient id="SVGID_00000075120246565808974720000016136609519467670678_" gradientUnits="userSpaceOnUse" x1="1418.7197" y1="2106.4839" x2="1230.6085" y2="2185.4907">
						<stop  offset="0" style="stop-color:#40447E"/>
						<stop  offset="0.9964" style="stop-color:#3C3B6B"/>
					</linearGradient>
					<path style="fill:url(#SVGID_00000075120246565808974720000016136609519467670678_);" d="M2280.064,2675.086L636.271,2791.932
						c-29.415,2.091-53.331-20.126-53.331-49.629V1560.299c0-29.503,23.916-53.42,53.331-53.42h1643.792
						c24.233,0,43.826,21.62,43.826,48.291v1068.51C2323.89,2650.35,2304.297,2673.363,2280.064,2675.086z"/>
					
						<linearGradient id="SVGID_00000017484563370058612730000012485163857285699219_" gradientUnits="userSpaceOnUse" x1="609.1508" y1="2149.4739" x2="2350.1006" y2="2149.4739">
						<stop  offset="0" style="stop-color:#40447E"/>
						<stop  offset="0.9964" style="stop-color:#3C3B6B"/>
					</linearGradient>
					<path style="fill:url(#SVGID_00000017484563370058612730000012485163857285699219_);" d="M2306.274,2675.086L662.482,2791.932
						c-29.415,2.091-53.331-20.126-53.331-49.629V1560.299c0-29.503,23.916-53.42,53.331-53.42h1643.792
						c24.234,0,43.827,21.62,43.827,48.291v1068.51C2350.101,2650.35,2330.508,2673.363,2306.274,2675.086z"/>
					
						<linearGradient id="SVGID_00000031200059420181801850000014048237612103518340_" gradientUnits="userSpaceOnUse" x1="1709.5948" y1="1726.1184" x2="371.1437" y2="3914.196">
						<stop  offset="0" style="stop-color:#FFC444"/>
						<stop  offset="0.9964" style="stop-color:#F36F56"/>
					</linearGradient>
					<path style="fill:url(#SVGID_00000031200059420181801850000014048237612103518340_);" d="M2291.23,1615.067v942.564
						c0,21.928-16.165,40.783-36.172,42.127l-306.282,20.294l-1108.446,73.499l-116.295,7.714
						c-23.913,1.569-43.376-16.678-43.376-40.75V1625.663c0-24.072,19.463-43.695,43.376-43.792l580.2-2.401l196.676-0.832
						l156.662-0.641l137.776-0.577l459.71-1.921C2275.065,1575.438,2291.23,1593.139,2291.23,1615.067z"/>
					<g style="opacity:0.3;">
						
							<linearGradient id="SVGID_00000144325902044566989220000006933855087501721245_" gradientUnits="userSpaceOnUse" x1="783.0378" y1="2212.1533" x2="2255.8254" y2="2212.1533" gradientTransform="matrix(0.9925 -0.1222 0.1222 0.9925 -340.301 113.0759)">
							<stop  offset="0" style="stop-color:#FFC444"/>
							<stop  offset="0.9964" style="stop-color:#F36F56"/>
						</linearGradient>
						<path style="fill:url(#SVGID_00000144325902044566989220000006933855087501721245_);" d="M2138.346,2233.583
							c27.24-4.609,47.344-30.539,44.911-57.939l-8.29-93.409c-2.432-27.402-26.473-45.967-53.715-41.422l-52.562,8.706
							c-11.332-42.479-27.017-82.619-46.607-120.105l44.75-35.084c22.407-17.573,27.819-49.264,12.07-70.807l-53.715-73.466
							c-15.78-21.576-46.8-24.873-69.272-7.299l-47.119,36.781c-30.346-28.713-63.863-53.97-99.906-75.418l24.937-55.827
							c11.62-26.025,0.767-55.219-24.265-65.207l-14.213-5.666l-137.776,0.577l-0.033,0.031l-25.64,57.204
							c-40.911-8.611-83.452-13.092-127.116-12.964l-3.873-43.631l-196.676,0.832c-0.641,4.033-0.8,8.162-0.417,12.324l5.442,61.398
							c-42.766,13.572-83.741,31.337-122.475,52.69l-35.403-47.921c-16.167-21.864-47.954-25.224-71.001-7.49l-78.779,60.565
							c-23.145,17.766-28.779,49.969-12.548,71.864l34.764,46.897c-32.075,32.683-60.949,68.406-86.175,106.501l-53.745-20.935
							c-25.706-10.021-56.276,3.297-68.28,29.77l-40.942,90.303c-12.037,26.537-0.896,56.116,24.904,66.071l51.346,19.879
							c-12.964,43.502-21.575,88.446-25.352,134.19l-54.547,9.028c-28.361,4.705-49.361,31.211-46.863,59.188l8.45,95.425
							c2.498,27.977,27.497,46.768,55.86,41.999l51.505-8.675c10.532,44.526,25.768,86.685,45.231,125.962l-40.525,31.659
							c-23.272,18.15-28.938,50.545-12.612,72.345l8.258,11.044l1108.446-73.499c14.31-18.853,27.658-38.413,39.982-58.58
							l41.198,15.941c24.904,9.603,54.419-3.778,65.974-29.931l39.309-89.023c11.524-26.089,0.736-55.091-24.104-64.758
							l-43.31-16.901c11.556-43.823,18.661-88.99,20.903-134.862L2138.346,2233.583z M1495.756,2636.411
							c-209.993,36.333-396.263-104.197-414.894-314.092c-18.63-209.865,137.647-407.725,347.832-441.752
							c208.936-33.804,392.327,107.237,410.734,314.828C1857.834,2402.954,1704.501,2600.334,1495.756,2636.411z"/>
					</g>
					<path style="fill:#FFFFFF;" d="M1542.432,1539.21c0,10.983-8.461,19.912-18.908,19.944c-10.461,0.032-18.95-8.865-18.95-19.873
						c0-11.008,8.489-19.937,18.95-19.945C1533.972,1519.328,1542.432,1528.226,1542.432,1539.21z"/>
					<path style="opacity:0.48;fill:#FFFFFF;" d="M1910.228,2350.903c-126.722-68.582-226.362,18.319-322.523-67.422
						c-58.299-51.982-29.676-90.746-101.412-168.427c-79.452-86.039-131.18-57.117-211.028-134.552
						c-100.963-97.912-50.467-174.09-137.434-244.387c-105.503-85.281-219.282-6.348-319.714-88.135
						c-43.317-35.275-67.084-86.559-79.495-141.1h-98.267c-17.22,0-31.204,14.038-31.204,31.356v1225.25
						c0,17.317,13.984,30.358,31.204,29.128L2315.648,2673c8.221-0.587,15.512-5.415,20.19-12.415
						c-122.636-4.496-197.978-45.848-246.138-88.598C1995.485,2488.358,2011.827,2405.888,1910.228,2350.903z"/>
				</g>
				
					<linearGradient id="SVGID_00000097484894518409922050000005788376500520246687_" gradientUnits="userSpaceOnUse" x1="609.1508" y1="2797.0437" x2="3231.8203" y2="2797.0437">
					<stop  offset="0" style="stop-color:#40447E"/>
					<stop  offset="0.9964" style="stop-color:#3C3B6B"/>
				</linearGradient>
				<path style="fill:url(#SVGID_00000097484894518409922050000005788376500520246687_);" d="M2371.791,2669.787L609.151,2792.779
					l768.544,130.342c8.801,1.493,17.726,1.889,26.608,1.181l1827.518-145.676l-831.99-108.003
					C2390.525,2669.415,2381.141,2669.135,2371.791,2669.787z"/>
				
					<linearGradient id="SVGID_00000147205217148888708620000014088822707781461150_" gradientUnits="userSpaceOnUse" x1="866.3476" y1="2776.7354" x2="2787.9612" y2="2776.7354">
					<stop  offset="0" style="stop-color:#40447E"/>
					<stop  offset="0.9964" style="stop-color:#3C3B6B"/>
				</linearGradient>
				<polygon style="opacity:0.3;fill:url(#SVGID_00000147205217148888708620000014088822707781461150_);" points="866.348,2795.872 
					2333.798,2691.952 2787.961,2750.433 1333.152,2861.519 				"/>
			</g>
			<g>
				<circle style="fill:#FFFFFF;" cx="1524.547" cy="2121.543" r="315.957"/>
				<g>
					<g>
						<g>
							<g>
								
									<linearGradient id="SVGID_00000172418914729498633190000001727813718499717515_" gradientUnits="userSpaceOnUse" x1="1347.7524" y1="2063.0613" x2="1685.313" y2="2063.0613">
									<stop  offset="0" style="stop-color:#FB6FBB"/>
									<stop  offset="1" style="stop-color:#FF9085"/>
								</linearGradient>
								<path style="fill:url(#SVGID_00000172418914729498633190000001727813718499717515_);" d="M1369.117,2193.593
									c-3.369,0-6.559-2.013-7.898-5.33c-8.936-22.133-13.467-45.561-13.467-69.632c0-102.617,83.485-186.102,186.102-186.102
									c58.811,0,114.808,28.279,149.793,75.648c2.794,3.782,1.992,9.113-1.791,11.907c-3.782,2.794-9.113,1.992-11.907-1.791
									c-31.788-43.039-82.664-68.734-136.095-68.734c-93.227,0-169.073,75.846-169.073,169.073
									c0,21.876,4.115,43.159,12.229,63.258c1.76,4.359-0.348,9.322-4.708,11.083
									C1371.258,2193.394,1370.179,2193.593,1369.117,2193.593z"/>
							</g>
							<g>
								
									<linearGradient id="SVGID_00000026878686188588674770000011140424187746168997_" gradientUnits="userSpaceOnUse" x1="1641.5015" y1="2000.3108" x2="1691.6765" y2="2000.3108">
									<stop  offset="0" style="stop-color:#FB6FBB"/>
									<stop  offset="1" style="stop-color:#FF9085"/>
								</linearGradient>
								<path style="fill:url(#SVGID_00000026878686188588674770000011140424187746168997_);" d="M1650.012,2023.251
									c-4.618,0-8.41-3.515-8.508-8.155c-0.101-4.702,3.628-8.506,8.329-8.607l21.287-0.413l3.646-21.616
									c0.78-4.636,5.184-7.748,9.81-6.97c4.637,0.78,7.762,5.179,6.981,9.816l-4.815,28.587c-0.678,4.03-4.126,6.836-8.213,6.923
									l-28.33,0.434C1650.137,2023.251,1650.074,2023.251,1650.012,2023.251z"/>
							</g>
						</g>
						<g>
							<g>
								
									<linearGradient id="SVGID_00000009553165341053084460000004779632362198263483_" gradientUnits="userSpaceOnUse" x1="1385.5562" y1="2178.127" x2="1719.9557" y2="2178.127">
									<stop  offset="0" style="stop-color:#FB6FBB"/>
									<stop  offset="1" style="stop-color:#FF9085"/>
								</linearGradient>
								<path style="fill:url(#SVGID_00000009553165341053084460000004779632362198263483_);" d="M1533.854,2304.733
									c-57.531,0-110.921-25.987-146.481-71.297c-2.903-3.699-2.258-9.051,1.442-11.954s9.052-2.256,11.954,1.442
									c32.31,41.168,80.818,64.78,133.085,64.78c93.227,0,169.073-75.846,169.073-169.073c0-19.133-3.168-37.901-9.417-55.786
									c-1.551-4.439,0.79-9.295,5.23-10.846c4.439-1.549,9.295,0.791,10.846,5.23c6.881,19.695,10.37,40.352,10.37,61.402
									C1719.956,2221.248,1636.471,2304.733,1533.854,2304.733z"/>
							</g>
							<g>
								
									<linearGradient id="SVGID_00000080926066502239485840000004192160245207682738_" gradientUnits="userSpaceOnUse" x1="1375.6094" y1="2236.2188" x2="1427.2375" y2="2236.2188">
									<stop  offset="0" style="stop-color:#FB6FBB"/>
									<stop  offset="1" style="stop-color:#FF9085"/>
								</linearGradient>
								<path style="fill:url(#SVGID_00000080926066502239485840000004192160245207682738_);" d="M1384.135,2258.708
									c-0.56,0-1.126-0.055-1.695-0.17c-4.61-0.931-7.592-5.422-6.66-10.031l5.611-27.862c0.803-3.976,4.298-6.916,8.345-6.916
									c0.032,0,0.063,0,0.095,0l28.986,0.406c4.703,0.052,8.472,3.949,8.421,8.652c-0.052,4.701-3.947,8.534-8.608,8.442
									l-21.941-0.231l-4.217,20.875C1391.655,2255.914,1388.104,2258.708,1384.135,2258.708z"/>
							</g>
						</g>
					</g>
					<g>
						
							<linearGradient id="SVGID_00000085962053992519067200000000935734123104190397_" gradientUnits="userSpaceOnUse" x1="1444.6312" y1="2128.3274" x2="1643.2765" y2="2128.3274">
							<stop  offset="0" style="stop-color:#FB6FBB"/>
							<stop  offset="1" style="stop-color:#FF9085"/>
						</linearGradient>
						<path style="fill:url(#SVGID_00000085962053992519067200000000935734123104190397_);" d="M1516.526,2208.577
							c-2.687,0-5.394-0.721-7.824-2.21l-56.916-34.891c-7.055-4.324-9.269-13.551-4.943-20.608
							c4.328-7.05,13.555-9.26,20.608-4.943l46.014,28.21l103.442-120.82c5.383-6.282,14.842-7.024,21.129-1.635
							c6.287,5.382,7.019,14.842,1.637,21.128l-111.758,130.529C1524.979,2206.766,1520.781,2208.577,1516.526,2208.577z"/>
					</g>
				</g>
			</g>
		</g>
		<g>
			<g>
				<g>
					
						<linearGradient id="SVGID_00000107565387572952164490000013588419136827798951_" gradientUnits="userSpaceOnUse" x1="-903.1082" y1="2037.6451" x2="-167.7365" y2="2537.1426" gradientTransform="matrix(-1 0 0 1 230.2854 0)">
						<stop  offset="0" style="stop-color:#311944"/>
						<stop  offset="1" style="stop-color:#6B3976"/>
					</linearGradient>
					<path style="fill:url(#SVGID_00000107565387572952164490000013588419136827798951_);" d="M1092.992,2303.337
						c13.834-8.969,1.229-35.061,0.484-91.104c-0.913-68.677,17.327-81.475,2.677-108.42c-17.914-32.948-63.01-46.583-92.888-47.225
						c-6.589-0.141-8.13-3.74-63.335,10.556c-99.459,25.759-124.358-1.853-168.898,25.728
						c-43.031,26.65-24.188,55.836-65.975,87.089c-67.733,50.659-138.961-4.11-187.37,38.265
						c-45.789,40.081-46.843,142.199,1.319,197.927c54.599,63.176,153.05,44.196,219.038,31.668
						c13.884-2.635,84.009-17.361,157.023-71.252c40.391-29.814,68.124-61.65,85.769-85.109c4.141-4.66,10.603-10.306,19.133-11.215
						c10.24-1.094,18.467,5.171,22.431,7.916C1043.215,2302.577,1079.402,2312.146,1092.992,2303.337z"/>
					
						<linearGradient id="SVGID_00000160156873601276866300000008970412544703023003_" gradientUnits="userSpaceOnUse" x1="977.4761" y1="3454.4546" x2="1295.3224" y2="2003.1555">
						<stop  offset="0.0036" style="stop-color:#E38DDD"/>
						<stop  offset="1" style="stop-color:#9571F6"/>
					</linearGradient>
					<path style="fill:url(#SVGID_00000160156873601276866300000008970412544703023003_);" d="M1037.406,2265.698
						c17.788-16.206,81.264,15.028,123.331,56.48c49.421,48.701,45.622,88.187,88.751,148.689
						c21.44,30.078,58.2,70.57,123.332,106.039c-4.611,11.526-9.221,23.054-13.831,34.579
						c-31.491,1.894-93.317,0.781-150.995-36.881c-40.067-26.164-60.682-60.83-100.278-129.096
						C1067.978,2376.996,1015.172,2285.956,1037.406,2265.698z"/>
					
						<linearGradient id="SVGID_00000169554120465076193780000014545036559090581938_" gradientUnits="userSpaceOnUse" x1="-1228.329" y1="3192.0132" x2="-1129.292" y2="3192.0132" gradientTransform="matrix(-1 0 0 1 230.2854 0)">
						<stop  offset="0" style="stop-color:#311944"/>
						<stop  offset="1" style="stop-color:#6B3976"/>
					</linearGradient>
					<path style="fill:url(#SVGID_00000169554120465076193780000014545036559090581938_);" d="M1438.314,3191.983l-49.551-29.774
						h-22.363c0,0-7.618,28.357-6.754,29.774c9.964,16.326,56.354,28.748,85.303,29.775c4.806,0.17,11.513,0.196,13.247-3.288
						C1461.131,3212.571,1448.018,3200.196,1438.314,3191.983z"/>
					<path style="fill:#D8DEE8;" d="M1387.885,3129.719c-3.185,18.433,0.844,28.042,5.187,33.426
						c3.057,3.789,5.772,4.867,23.915,20.549c6,5.188,9.052,7.965,8.358,9.419c-0.793,1.663-6.088,0.761-17.521-1.988
						c-24.916-5.992-37.436-9.11-40.493-15.106c-2.768-5.429-0.321-7.878-0.482-22.671c-0.105-9.74-2.086-17.579-3.643-22.483
						C1371.433,3130.482,1379.659,3130.102,1387.885,3129.719z"/>
					
						<linearGradient id="SVGID_00000029764616792887456950000007656736313738861240_" gradientUnits="userSpaceOnUse" x1="-1212.5649" y1="3010.1675" x2="-1151.9969" y2="3010.1675" gradientTransform="matrix(-1 0 0 1 230.2854 0)">
						<stop  offset="0" style="stop-color:#311944"/>
						<stop  offset="1" style="stop-color:#6B3976"/>
					</linearGradient>
					<path style="fill:url(#SVGID_00000029764616792887456950000007656736313738861240_);" d="M1423.705,2983.637
						c0,0,22.387,26.713,18.744,55.997c-3.643,29.283-42.849-13.53-48.314-28c-5.468-14.469-11.853-35.083-11.853-35.083
						S1409.776,2959.448,1423.705,2983.637z"/>
					<path style="fill:#D8DEE8;" d="M1415.166,2941.841c0,0-6.074,31.121,5.51,47.546c5.77,8.181,13.551,15.12,11.263,21.779
						c-1.533,4.463-7.357,7.669-12.289,7.163c-9.444-0.97-14.679-15.448-18.371-25.659c-5.453-15.083-8.494-47.358-8.494-47.358
						L1415.166,2941.841z"/>
					
						<linearGradient id="SVGID_00000041291016293987305130000017817997765384753060_" gradientUnits="userSpaceOnUse" x1="-1125.8037" y1="2676.6008" x2="-1052.0363" y2="3103.0698" gradientTransform="matrix(-1 0 0 1 230.2854 0)">
						<stop  offset="0" style="stop-color:#AB316D"/>
						<stop  offset="1" style="stop-color:#792D3D"/>
					</linearGradient>
					<path style="fill:url(#SVGID_00000041291016293987305130000017817997765384753060_);" d="M1397.323,2968.075
						c6.885-2.507,13.77-5.016,20.655-7.524c10.74-24.532,23.849-64.826,19.471-113.803
						c-11.26-125.952-127.752-192.695-140.693-199.838c-31.739,15.925-63.887,38.389-65.051,66.71
						c-1.461,35.551,46.97,54.344,92.497,106.33C1351.53,2851.154,1380.73,2897.65,1397.323,2968.075z"/>
					
						<linearGradient id="SVGID_00000083087214673813380640000000353536761350039739_" gradientUnits="userSpaceOnUse" x1="-1021.6266" y1="3182.0288" x2="-916.7377" y2="2850.0732" gradientTransform="matrix(-1 0 0 1 230.2854 0)">
						<stop  offset="0" style="stop-color:#AB316D"/>
						<stop  offset="1" style="stop-color:#792D3D"/>
					</linearGradient>
					<path style="fill:url(#SVGID_00000083087214673813380640000000353536761350039739_);" d="M1389.901,3144.126
						c22.748-88.862,16.937-161.376,10.375-203.15c-9.919-63.138-30.093-191.568-115.839-239.458
						c-18.724-10.458-45.493-19.823-78.117-48.897c-27.245-24.28-44.562-49.816-55.01-67.806
						c-114.675-33.64-220.447-20.007-267.121,41.495c-5.393,7.107-18.895,22.521-21.506,45.25
						c-5.894,51.283,44.495,113.023,101.037,125.915c71.86,16.386,113.549-57.4,177.216-32.85
						c17.81,6.867,32.908,23.884,63.107,57.919c38.417,43.296,60.011,83.248,68.182,99.234
						c24.328,47.603,42.776,82.744,45.467,128.286c0.626,10.609,1.001,32.044,13.428,55.162
						c9.539,17.746,22.469,29.578,32.089,36.888C1372.105,3142.784,1381.003,3143.456,1389.901,3144.126z"/>
					
						<linearGradient id="SVGID_00000017514374103883229190000013306842354088672403_" gradientUnits="userSpaceOnUse" x1="-1021.6173" y1="3182.0327" x2="-916.7284" y2="2850.0767" gradientTransform="matrix(-1 0 0 1 230.2854 0)">
						<stop  offset="0" style="stop-color:#AB316D"/>
						<stop  offset="1" style="stop-color:#792D3D"/>
					</linearGradient>
					<path style="opacity:0.3;fill:url(#SVGID_00000017514374103883229190000013306842354088672403_);" d="M862.682,2671.56
						c2.612-22.729,16.114-38.143,21.506-45.25c46.674-61.502,152.446-75.135,267.121-41.495
						c10.449,17.99,27.766,43.526,55.009,67.806c32.625,29.074,59.394,38.439,78.118,48.897
						c52.36,29.244,80.246,88.511,96.301,144.613c-23.821-36.934-44.212-46.753-59.992-46.928
						c-22.587-0.251-32.679,19.061-59.649,16.424c-28.827-2.817-35.417-26.652-58.783-29.391c-6.994-0.82-15.6,0.26-25.936,5.762
						c-13.793-14.442-24.074-22.991-35.442-27.374c-63.666-24.55-105.356,49.236-177.216,32.85
						C907.177,2784.583,856.787,2722.843,862.682,2671.56z"/>
					
						<linearGradient id="SVGID_00000025421467253847408200000008195611922059876783_" gradientUnits="userSpaceOnUse" x1="-874.0243" y1="2633.5576" x2="-800.4268" y2="3059.0442" gradientTransform="matrix(-1 0 0 1 230.2854 0)">
						<stop  offset="0" style="stop-color:#AB316D"/>
						<stop  offset="1" style="stop-color:#792D3D"/>
					</linearGradient>
					<path style="fill:url(#SVGID_00000025421467253847408200000008195611922059876783_);" d="M1330.486,2741.263
						c-12.979-0.689-32.967-1.088-57.077,1.294c-114.422,11.307-145.965,67.905-240.532,81.716
						c-22.37,3.268-121.973,17.815-165.114-39.765c-30.971-41.339-26.286-112.57,7.591-140.585
						c14.337-11.857,28.531-11.528,120.351-10.697c34.579,0.313,69.159,0.425,103.737,0.865
						c146.37,1.865,174.362-8.272,200.994,15.938C1312.858,2661.322,1331.025,2685.58,1330.486,2741.263z"/>
					<g>
						<g>
							
								<linearGradient id="SVGID_00000125564945908812880770000010002151656084499360_" gradientUnits="userSpaceOnUse" x1="803.2684" y1="3416.3027" x2="1121.1144" y2="1965.0054">
								<stop  offset="0.0036" style="stop-color:#E38DDD"/>
								<stop  offset="1" style="stop-color:#9571F6"/>
							</linearGradient>
							<path style="fill:url(#SVGID_00000125564945908812880770000010002151656084499360_);" d="M1021.484,2271.637
								c0,0-170.8-49.811-188.519,75.231c-16.982,119.848,70.017,174.847,30.432,296.242
								c-4.589,14.071,325.133-50.386,325.133-50.386c-44.014-54.91-54.242-100.21-55.293-131.707
								c-1.153-34.531,8.8-50.226,0-91.046c0,0-9.82-45.546-45.245-84.656C1082.907,2279.7,1076.844,2273.852,1021.484,2271.637z"/>
						</g>
					</g>
					<g>
						<path style="fill:#FFFFFF;" d="M984.389,2196.699c1.565,7.31,9.529,46.536-6.52,56.629c-3.479,2.189-10.163,3.44-23.534,5.947
							c-8.753,1.641-16.097,2.646-21.277,3.266c0.748,6.577,2.964,17.284,10.555,27.022c21.279,27.3,63.946,20.236,70.03,19.127
							c21.461-3.908,42.58-10.539,47.681-14.591c7.765-6.171,13.871-10.801,17.483-15.504c-8.306-4.013-25.073-14.598-36.326-18.062
							c-8.409-2.587-16.303-4.434-23.484-5.759c-1.18-7.577-2.361-15.155-3.542-22.733
							C1005.099,2220.261,994.744,2208.48,984.389,2196.699z"/>
						<path style="fill:#FFFFFF;" d="M983.637,2216.248c0,0,2.9,28.746,30.844,33.812c25.02,4.536,43.854-55.924,31.049-71.563
							c-4.271-5.217-14.815-10.18-23.956-9.917c-6.428,0.185-28.143,8.455-31.174,30.183c-4.325-4.556-9.713-5.866-12.37-3.958
							c-3.37,2.42-1.565,9.457-1.155,11.051C978.293,2211.381,981.899,2214.804,983.637,2216.248z"/>
					</g>
				</g>
			</g>
			<g>
				
					<linearGradient id="SVGID_00000159437972209297411350000004376426267367682952_" gradientUnits="userSpaceOnUse" x1="509.9367" y1="2627.9998" x2="795.6677" y2="2627.9998" gradientTransform="matrix(-1 0 0 1 1740.2787 0)">
					<stop  offset="0" style="stop-color:#40447E"/>
					<stop  offset="0.9964" style="stop-color:#3C3B6B"/>
				</linearGradient>
				<path style="fill:url(#SVGID_00000159437972209297411350000004376426267367682952_);" d="M1223.343,2606.764l-261.416,12.721
					c-3.598,0.176-6.88,2.104-8.784,5.16l-7.233,11.61c-3.6,5.779,0.726,13.233,7.531,12.973l276.902-10.548L1223.343,2606.764z"/>
				
					<linearGradient id="SVGID_00000059290861675534256950000000088861000699943049_" gradientUnits="userSpaceOnUse" x1="327.2116" y1="2447.7593" x2="514.5448" y2="2633.5938" gradientTransform="matrix(-1 0 0 1 1740.2787 0)">
					<stop  offset="0" style="stop-color:#40447E"/>
					<stop  offset="0.9964" style="stop-color:#3C3B6B"/>
				</linearGradient>
				<path style="fill:url(#SVGID_00000059290861675534256950000000088861000699943049_);" d="M1495.239,2461.189l-270.072,5.234
					c-7.991,0.155-15.309,4.509-19.257,11.456l-93.523,164.544l285.229-11.364c7.828-0.312,14.972-4.551,18.997-11.274
					l86.648-144.759C1506.95,2468.865,1502.419,2461.05,1495.239,2461.189z"/>
				
					<linearGradient id="SVGID_00000106867936032963599780000014230253489429474218_" gradientUnits="userSpaceOnUse" x1="327.2121" y1="2447.7595" x2="514.5454" y2="2633.594" gradientTransform="matrix(-1 0 0 1 1740.2787 0)">
					<stop  offset="0" style="stop-color:#40447E"/>
					<stop  offset="0.9964" style="stop-color:#3C3B6B"/>
				</linearGradient>
				<path style="opacity:0.3;fill:url(#SVGID_00000106867936032963599780000014230253489429474218_);" d="M1205.908,2477.88
					c3.949-6.948,11.267-11.302,19.258-11.457l5.919-0.114c0.882,8.718,3.557,16.692,8.892,23.131
					c16.653,20.101,44.321,7.702,64.943,28.975c22.653,23.368,1.726,51.186,21.98,72.935c21.318,22.891,55.79,4.253,95.418,18.902
					l-5.706,9.533c-4.023,6.724-11.168,10.963-18.996,11.275l-285.229,11.364L1205.908,2477.88z"/>
			</g>
			<g>
				
					<linearGradient id="SVGID_00000086651463714490727930000017567467571745459853_" gradientUnits="userSpaceOnUse" x1="665.412" y1="3386.1111" x2="983.2582" y2="1934.8123">
					<stop  offset="0.0036" style="stop-color:#E38DDD"/>
					<stop  offset="1" style="stop-color:#9571F6"/>
				</linearGradient>
				<path style="fill:url(#SVGID_00000086651463714490727930000017567467571745459853_);" d="M983.229,2598.029
					c3.402-8.986,6.805-17.97,10.208-26.956c-37.606-10.312-89.615-25.544-142.962-44.606c-8.355-2.986-18.28-6.684-21.532-15.475
					c-9.122-24.662,48.869-50.217,71.412-104.066c20.849-49.803,9.374-118.916-14.823-127.081
					c-50.351-16.99-228.904,205.265-165.133,298.956C756.448,2631.763,867.585,2640.196,983.229,2598.029z"/>
			</g>
			<path style="fill:#FFFFFF;" d="M993.437,2571.073c23.608-12.541,51.868,0.314,53.689,1.174
				c5.187,2.448,12.737,6.811,20.365,14.602c0.862,1.177,11.103,15.367,7.372,19.914c-2.99,3.643-14.571,0.623-28.49-8.033
				c-5.834-0.818-14.52-1.569-24.925-0.611c-19.108,1.762-27.861,7.799-34.797,2.589c-5.08-3.814-6.811-11.879-4.983-17.875
				C983.633,2576.391,989.441,2573.196,993.437,2571.073z"/>
		</g>
		<g>
			
				<linearGradient id="SVGID_00000107568149421205497640000003482669562555267736_" gradientUnits="userSpaceOnUse" x1="1472.782" y1="2152.9167" x2="1837.09" y2="2152.9167" gradientTransform="matrix(-1 0 0 1 4027.9646 0)">
				<stop  offset="0" style="stop-color:#444B8C"/>
				<stop  offset="0.9964" style="stop-color:#3E4177"/>
			</linearGradient>
			<path style="fill:url(#SVGID_00000107568149421205497640000003482669562555267736_);" d="M2244.134,1852.999
				c67.184-32.81,198.224,86.031,261.995,199.864c25.414,45.361,55.25,98.619,47.928,161.933
				c-12.978,112.248-137.495,210.708-308.882,243.579c-4.824-17.233-9.65-34.464-14.475-51.695
				c18.74-19.517,46.763-47.694,82.579-79.978c55.014-49.591,66.319-52.897,68.957-68.553
				c8.642-51.283-123.237-94.214-170.146-184.383C2171.76,1996.24,2192.522,1878.205,2244.134,1852.999z"/>
			
				<linearGradient id="SVGID_00000099623202196432313880000009343323658604267167_" gradientUnits="userSpaceOnUse" x1="2339.4758" y1="2488.5015" x2="2394.7002" y2="2814.8279">
				<stop  offset="0" style="stop-color:#444B8C"/>
				<stop  offset="0.9964" style="stop-color:#26264F"/>
			</linearGradient>
			<path style="fill:url(#SVGID_00000099623202196432313880000009343323658604267167_);" d="M2332.398,2755.174
				c0,0-11.03,27.211-5.545,37.866c5.758,11.188,22.405,7.861,69.271,9.622c47.999,1.803,58.855,5.655,60.773,0.833
				c3.833-9.635-33.459-40.234-77.084-48.322C2360.595,2751.611,2343.947,2753.12,2332.398,2755.174z"/>
			
				<linearGradient id="SVGID_00000056419567908865836490000013486568471012255665_" gradientUnits="userSpaceOnUse" x1="1721.3763" y1="2544.2583" x2="1673.8168" y2="2842.0208" gradientTransform="matrix(-1 0 0 1 4027.9646 0)">
				<stop  offset="0" style="stop-color:#311944"/>
				<stop  offset="1" style="stop-color:#A03976"/>
			</linearGradient>
			<path style="fill:url(#SVGID_00000056419567908865836490000013486568471012255665_);" d="M2342.281,2714.495l26.096,40.678
				c0,0-12.027,11.868-32.462,7.45l-28.707-38.537L2342.281,2714.495z"/>
			
				<linearGradient id="SVGID_00000053509458216982044590000011252823574696942761_" gradientUnits="userSpaceOnUse" x1="1472.7825" y1="2152.9431" x2="1837.0883" y2="2152.9431" gradientTransform="matrix(-1 0 0 1 4027.9646 0)">
				<stop  offset="0" style="stop-color:#444B8C"/>
				<stop  offset="0.9964" style="stop-color:#3E4177"/>
			</linearGradient>
			<path style="opacity:0.3;fill:url(#SVGID_00000053509458216982044590000011252823574696942761_);" d="M2212.091,2073.766
				c-40.33-77.526-19.568-195.561,32.043-220.767c13.534-6.609,29.685-6.978,47.33-2.559c-9.291,26.831-7.449,46.23-2.865,59.97
				c20.448,61.285,108.854,54.312,136.474,124.067c17.46,44.095-10.305,65.978,14.475,101.322
				c25.68,36.629,67.673,30.488,80.644,66.169c9.665,26.586-9.394,41.704-2.067,64.101c2.041,6.242,6.065,12.508,12.829,18.46
				c-45.42,81.687-151.113,148.017-285.778,173.845c-4.824-17.233-9.65-34.464-14.475-51.695
				c18.74-19.517,46.763-47.694,82.579-79.978c55.014-49.591,66.319-52.897,68.957-68.553
				C2390.878,2206.866,2258.999,2163.935,2212.091,2073.766z"/>
			
				<linearGradient id="SVGID_00000093859281125761733910000005847839045669165739_" gradientUnits="userSpaceOnUse" x1="1674.6577" y1="2309.3931" x2="1986.1587" y2="2309.3931" gradientTransform="matrix(-1 0 0 1 4027.9646 0)">
				<stop  offset="0" style="stop-color:#444B8C"/>
				<stop  offset="0.9964" style="stop-color:#3E4177"/>
			</linearGradient>
			<path style="fill:url(#SVGID_00000093859281125761733910000005847839045669165739_);" d="M2289.978,1877.325
				c-2.907,117.49-1.276,244.526,7.232,379.764c10.864,172.684,31.218,331.293,56.097,473.822
				c-11.052,3.516-22.104,7.032-33.155,10.549c-113.672-110.753-147.687-208.181-157-278.26c-6.582-49.54,3.38-53.797-5.504-115.799
				c-16.919-118.073-61.055-158.51-92.048-269.046c-11.632-41.488-24.583-104.164-23.756-185.864
				C2124.555,1887.435,2207.267,1882.38,2289.978,1877.325z"/>
			
				<linearGradient id="SVGID_00000029764435483015749870000017564835337214007454_" gradientUnits="userSpaceOnUse" x1="1913.6278" y1="1673.0081" x2="2615.4207" y2="1673.0081">
				<stop  offset="0" style="stop-color:#FF9085"/>
				<stop  offset="1" style="stop-color:#FB6FBB"/>
			</linearGradient>
			<path style="fill:url(#SVGID_00000029764435483015749870000017564835337214007454_);" d="M2371.404,1666.877
				c-2.063,0.473-11.025,3.454-14.568,40.889c-8.545,90.266,38.453,126.811,26.881,175.762
				c-11.108,46.987-67.759,69.783-126.069,93.247c-38.967,15.682-159.49,64.178-229.582,9.645
				c-29.499-22.952-32.727-50.662-53.771-152.518c-53.469-258.793-74.183-281.027-51.695-337.05
				c38.618-96.208,142.017-136.049,159.22-142.678c183.437-70.682,400.058,59.225,485.657,208.469
				c11.271,19.651,78.584,137.014,31.29,192.682c-28.613,33.677-94.363,39.114-137.755,16.149
				C2403.038,1740.792,2390.72,1662.449,2371.404,1666.877z"/>
			
				<linearGradient id="SVGID_00000067931688597642244220000002463076169836589963_" gradientUnits="userSpaceOnUse" x1="2443.1543" y1="1673.8927" x2="2576.0225" y2="1673.8927">
				<stop  offset="0" style="stop-color:#FF9085"/>
				<stop  offset="1" style="stop-color:#FB6FBB"/>
			</linearGradient>
			<path style="fill:url(#SVGID_00000067931688597642244220000002463076169836589963_);" d="M2571.891,1735.335
				c0.573,0,1.155-0.121,1.712-0.375c2.075-0.946,2.992-3.397,2.048-5.477c-1.572-3.442-39.438-84.707-126.94-116.774
				c-2.148-0.796-4.519,0.311-5.302,2.46c-0.787,2.144,0.315,4.518,2.46,5.302c84.165,30.848,121.882,111.633,122.253,112.444
				C2568.817,1734.438,2570.319,1735.335,2571.891,1735.335z"/>
			
				<linearGradient id="SVGID_00000031180430882062945600000015326808205073312678_" gradientUnits="userSpaceOnUse" x1="2216.3081" y1="1562.658" x2="2271.5935" y2="1656.0289">
				<stop  offset="0" style="stop-color:#311944"/>
				<stop  offset="1" style="stop-color:#A03976"/>
			</linearGradient>
			<path style="fill:url(#SVGID_00000031180430882062945600000015326808205073312678_);" d="M2228.362,1642.515
				c0.484-3.732,4.27-29.517,25.8-37.779c10.709-4.109,29.529-5.31,36.857,6.45c4.601,7.384,4.199,19.12-1.844,24.878
				c-7.639,7.28-17.6-1.373-31.328,4.607c-16.501,7.188-19.18,27.126-24.879,25.8
				C2228.487,1665.429,2227.083,1652.379,2228.362,1642.515z"/>
			
				<linearGradient id="SVGID_00000047773850998104639280000017396225049472103097_" gradientUnits="userSpaceOnUse" x1="1913.6278" y1="1716.5945" x2="2385.5549" y2="1716.5945">
				<stop  offset="0" style="stop-color:#FF9085"/>
				<stop  offset="1" style="stop-color:#FB6FBB"/>
			</linearGradient>
			<path style="opacity:0.3;fill:url(#SVGID_00000047773850998104639280000017396225049472103097_);" d="M2042.532,1463.768
				c11.577,31.518-23.161,58.829-8.271,93.05c21.341,49.044,106.152,23.872,136.474,72.373
				c35.937,57.482-46.357,151.764-12.406,184.033c15.471,14.705,33.346-4.129,78.576,6.204
				c64.415,14.714,83.77,65.616,113.729,57.898c9.423-2.427,20.844-10.981,30.455-37.314c4.189,14.611,6.184,28.481,2.63,43.518
				c-11.108,46.987-67.759,69.783-126.07,93.247c-38.968,15.682-159.49,64.178-229.581,9.645
				c-29.499-22.952-32.727-50.662-53.771-152.518c-53.469-258.793-74.183-281.027-51.695-337.05
				c12.262-30.548,31.06-55.394,51.551-75.318C2018.331,1431.293,2036.472,1447.268,2042.532,1463.768z"/>
			
				<linearGradient id="SVGID_00000112619025079507053230000015595644278072215179_" gradientUnits="userSpaceOnUse" x1="1871.6462" y1="1566.6053" x2="2244.7368" y2="1566.6053">
				<stop  offset="0" style="stop-color:#FF9085"/>
				<stop  offset="1" style="stop-color:#FB6FBB"/>
			</linearGradient>
			<path style="fill:url(#SVGID_00000112619025079507053230000015595644278072215179_);" d="M2227.019,1618.223
				c-4.949,4.501-60.447,64.102-120.813,49.009c-52.573-13.146-84.851-64.26-90.506-107.27
				c-13.448-102.288,119.817-188.146,103.389-208.847c-9.662-12.174-61.116,10.419-97.186,33.085
				c-29.578,18.586-153.513,96.466-150.191,227.044c0.337,13.252,2.473,97.225,58.049,139.135
				c75.057,56.601,191.054,55.089,314.976-81.73C2237.874,1649.112,2233.883,1637.76,2227.019,1618.223z"/>
			<g>
				
					<linearGradient id="SVGID_00000018225494338270568100000000528726817108394894_" gradientUnits="userSpaceOnUse" x1="2535.2195" y1="1680.5262" x2="2337.1135" y2="1531.2556">
					<stop  offset="0" style="stop-color:#444B8C"/>
					<stop  offset="0.9964" style="stop-color:#26264F"/>
				</linearGradient>
				<path style="fill:url(#SVGID_00000018225494338270568100000000528726817108394894_);" d="M2497.96,1492.897l-59.751,190.867
					c-1.96,6.259-7.654,10.6-14.207,10.831l-78.129,11.358c-10.077,0.357-17.792-8.873-15.653-18.726l52.685-195.366
					c1.503-6.934,7.535-11.954,14.626-12.174l85.195-6.859C2493.355,1472.496,2501.137,1482.748,2497.96,1492.897z"/>
				
					<linearGradient id="SVGID_00000145763283784013209280000009499581871102151080_" gradientUnits="userSpaceOnUse" x1="1582.3175" y1="1533.8601" x2="1676.5193" y2="1703.7087" gradientTransform="matrix(-1 0 0 1 4027.9646 0)">
					<stop  offset="0" style="stop-color:#444B8C"/>
					<stop  offset="0.9964" style="stop-color:#26264F"/>
				</linearGradient>
				<path style="fill:url(#SVGID_00000145763283784013209280000009499581871102151080_);" d="M2495.094,1499.173l-57.992,185.245
					c-1.901,6.074-7.427,10.288-13.787,10.512l-68.659,11.025c-9.779,0.345-17.267-8.613-15.192-18.175l51.46-189.721
					c1.46-6.729,7.313-11.602,14.196-11.816l75.188-6.548C2490.625,1479.373,2498.178,1489.323,2495.094,1499.173z"/>
				
					<linearGradient id="SVGID_00000052097396263164960350000013823866987142206339_" gradientUnits="userSpaceOnUse" x1="2324.9072" y1="1483.3605" x2="2471.5527" y2="1838.4458">
					<stop  offset="0" style="stop-color:#444B8C"/>
					<stop  offset="0.9964" style="stop-color:#26264F"/>
				</linearGradient>
				<path style="opacity:0.3;fill:url(#SVGID_00000052097396263164960350000013823866987142206339_);" d="M2339.464,1687.779
					l49.165-181.26c3.65,1.801,8.921,4.586,13.869,8.83c19.365,16.609,30.455,46.672,24.063,70.717
					c-8.152,30.665-39.441,31.613-43.768,57.128c-3.387,19.973,12.812,41.114,26.193,54.036l-54.329,8.723
					C2344.878,1706.298,2337.389,1697.34,2339.464,1687.779z"/>
			</g>
			
				<linearGradient id="SVGID_00000090991142359997343250000013713352836496848782_" gradientUnits="userSpaceOnUse" x1="1806.2717" y1="1188.4031" x2="1780.0797" y2="1411.7252" gradientTransform="matrix(-1 0 0 1 4027.9646 0)">
				<stop  offset="0" style="stop-color:#311944"/>
				<stop  offset="1" style="stop-color:#A03976"/>
			</linearGradient>
			<path style="fill:url(#SVGID_00000090991142359997343250000013713352836496848782_);" d="M2270.91,1335.784
				c-3.419,11.997,3.798,24.465,15.925,27.391c14.689,3.544,32.583,8.445,40.309,12.866c14.183,8.117-43.203-1.259-95.987-2.498
				c-32.953-0.773-57.578-4.472-71.43-7.142c-3.719-0.718-4.006-5.908-0.407-7.079c13.19-4.292,34.635-10.61,52.759-12.887
				c22.438-2.821,46.499-52.334,46.499-52.334l19.229,17.468L2270.91,1335.784z"/>
			
				<linearGradient id="SVGID_00000124123147152099509880000003114523457583976868_" gradientUnits="userSpaceOnUse" x1="1562.7433" y1="1634.1884" x2="1625.7698" y2="1634.1884" gradientTransform="matrix(-1 0 0 1 4027.9646 0)">
				<stop  offset="0" style="stop-color:#311944"/>
				<stop  offset="1" style="stop-color:#A03976"/>
			</linearGradient>
			<path style="fill:url(#SVGID_00000124123147152099509880000003114523457583976868_);" d="M2461.906,1628.893l-3.649-5.967
				c-3.228-12.393-15.133-20.48-27.843-18.913l-19.173,2.365c-6,0.74-10.06,6.447-8.825,12.365
				c1.784,8.558,6.375,18.796,18.154,18.001c20.011-1.35,32.802,27.813,32.802,27.813l7.681-10.818
				C2466.283,1646.374,2466.618,1636.599,2461.906,1628.893z"/>
			
				<linearGradient id="SVGID_00000027568565303794846130000003253573990539645571_" gradientUnits="userSpaceOnUse" x1="2333.2214" y1="1180.5115" x2="2298.2073" y2="1284.6324">
				<stop  offset="0" style="stop-color:#444B8C"/>
				<stop  offset="0.9964" style="stop-color:#26264F"/>
			</linearGradient>
			<path style="fill:url(#SVGID_00000027568565303794846130000003253573990539645571_);" d="M2313.766,1310.409
				c16.584-2.457,35.16-16.398,34.799-27.917c-0.496-15.832-36.688-24.503-54.962-28.88c-18.33-4.391-26.104-2.802-31.351,1.192
				c-5.36,4.081-8.882,11.387-10.035,17.687c-0.628,3.433-0.661,8.157-0.073,17.571c0.523,8.354,0.369,7.987,0.585,10.455
				c0.521,5.928,2.138,16.353,7.916,30.805c2.407-2.638,5.594-5.791,9.618-8.898c1.548-1.195,7.673-5.824,14.638-8.628
				C2296.855,1308.981,2303.699,1311.9,2313.766,1310.409z"/>
			
				<linearGradient id="SVGID_00000129903241994000820940000013394090405459115445_" gradientUnits="userSpaceOnUse" x1="1782.5939" y1="1218.5874" x2="1757.7803" y2="1280.6216" gradientTransform="matrix(-1 0 0 1 4027.9646 0)">
				<stop  offset="0" style="stop-color:#311944"/>
				<stop  offset="1" style="stop-color:#A03976"/>
			</linearGradient>
			<path style="fill:url(#SVGID_00000129903241994000820940000013394090405459115445_);" d="M2251.822,1315.214
				c0,0,1.075,23.102,22.843,33.244c19.492,9.081,45.36-31.614,38.243-47.154c-2.374-5.183-9.726-10.822-17.26-12.568
				c-4.449-1.032-6.632-0.143-13.87-1.969c-6.675-1.685-7.972-3.238-10.55-2.719c-3.224,0.648-7.334,4.318-10.406,18.674
				c-1.599-5.602-5.146-9.358-8.988-9.588c-0.614-0.037-2.388,0.135-3.844,1.069
				C2242.72,1297.583,2243.75,1306.149,2251.822,1315.214z"/>
		</g>
		<g>
			
				<linearGradient id="SVGID_00000092416151320691164420000000311141917371262135_" gradientUnits="userSpaceOnUse" x1="2154.1213" y1="749.211" x2="2042.4596" y2="2351.5532">
				<stop  offset="0" style="stop-color:#FF9085"/>
				<stop  offset="1" style="stop-color:#FB6FBB"/>
			</linearGradient>
			<path style="fill:url(#SVGID_00000092416151320691164420000000311141917371262135_);" d="M2944.195,1405.704l-181.129,36.151
				l-27.499,5.469c0,0-2.735-5.994-7.904-17.195c-2.435-5.694-5.919-12.475-9.927-20.493c-3.858-8.129-8.879-17.12-14.423-27.31
				c-11.314-20.154-25.699-44.467-44.505-70.954c-18.77-26.449-41.545-55.369-69.23-84.627
				c-27.61-29.258-59.978-58.892-96.916-87.139c-18.731-13.785-38.137-27.833-59.078-40.57c-2.585-1.648-5.208-3.298-7.792-4.946
				c-2.66-1.573-5.356-3.108-8.016-4.683c-5.358-3.108-10.752-6.256-16.146-9.441c-11.091-5.806-22.103-12.175-33.641-17.645
				c-45.741-22.964-95.643-41.882-148.052-56.08c-26.224-7.006-53.123-12.55-80.358-17.158l-20.566-2.885
				c-3.41-0.45-6.931-1.048-10.229-1.423l-10.002-1.05l-10.002-1.086c-3.333-0.337-6.518-0.748-10.414-0.937l-22.327-1.46
				l-2.81-0.188l-1.386-1.591l-0.375-1.517h-0.336l-4.871,1.292l-10.489,0.403c-6.968-0.225-13.973-0.194-20.941-0.044
				l-20.943,0.223c-7.006,0.3-13.973,0.654-20.941,0.916c-27.872,1.35-55.669,3.831-83.054,8.1l-10.302,1.523l-10.191,1.846
				c-6.781,1.237-13.598,2.404-20.341,3.752c-13.45,2.96-26.899,5.661-40.086,9.257c-13.262,3.146-26.224,7.194-39.224,10.94
				c-6.443,2.023-12.812,4.197-19.179,6.295c-3.185,1.048-6.369,2.099-9.554,3.147c-3.146,1.162-6.256,2.323-9.366,3.485
				c-25.174,8.877-49.224,19.443-72.602,30.343c-11.575,5.694-23.077,11.202-34.128,17.308
				c-11.239,5.806-21.953,12.214-32.668,18.356c-42.445,25.176-80.356,53.009-113.549,80.919
				c-33.228,27.985-61.513,56.344-85.152,82.867c-23.637,26.524-42.482,51.248-57.467,72.04
				c-7.343,10.489-14.012,19.854-19.256,28.172c-5.356,8.316-10.039,15.285-13.56,21.391c-1.873,3.146-3.523,5.881-4.946,8.243
				c-2.996,4.981-8.991,7.154-14.385,5.431c-0.75-0.225-1.462-0.525-2.173-0.898l-0.9-0.488c-5.842-3.146-8.204-10.339-5.319-16.333
				c1.162-2.473,2.548-5.356,4.121-8.654c2.885-6.293,7.081-14.124,11.914-23.301c4.683-9.366,10.639-19.593,17.195-31.17
				c13.412-22.926,30.57-50.424,52.597-80.469c22.066-29.97,48.926-62.561,81.256-95.491c32.33-32.855,69.867-66.346,112.912-97.702
				c10.864-7.718,21.766-15.696,33.303-23.077c11.316-7.717,23.191-14.91,35.178-22.214c24.164-14.237,49.34-28.21,75.936-40.572
				c3.296-1.573,6.594-3.185,9.929-4.758c3.371-1.498,6.742-2.998,10.114-4.458c6.781-2.96,13.562-6.033,20.418-8.917
				c13.86-5.469,27.758-11.275,42.107-16.145c14.198-5.321,28.772-9.779,43.418-14.462c7.343-2.21,14.762-4.196,22.216-6.331
				l11.164-3.071l11.277-2.773c30.118-7.679,60.988-13.373,92.194-17.87c7.829-1.048,15.658-2.06,23.489-3.108l23.6-2.323
				c7.904-0.862,15.81-1.275,23.714-1.762l11.914-0.748l5.919-0.375l6.668-0.15l22.366-0.637c3.558-0.188,7.792-0.113,11.875-0.075
				l12.325,0.112l12.325,0.15c4.119,0.038,7.979,0.337,11.987,0.487c7.943,0.375,15.922,0.712,23.864,1.086
				c31.731,2.285,63.35,5.769,94.554,11.014c62.302,10.602,122.915,27.235,179.558,49.19c14.273,5.206,28.022,11.425,41.845,17.156
				c6.781,3.11,13.523,6.219,20.268,9.329c3.335,1.573,6.706,3.146,10.041,4.683c3.296,1.648,6.556,3.335,9.852,4.983
				c26.41,12.848,51.247,27.347,75.3,41.809c47.615,29.67,90.246,61.85,127.334,94.293c37.126,32.441,68.556,65.296,94.893,95.791
				c26.337,30.495,47.165,58.965,63.723,82.867c8.167,12.025,15.473,22.777,21.318,32.441c5.992,9.591,11.164,17.758,14.985,24.576
				C2914.339,1348.313,2944.195,1405.704,2944.195,1405.704z"/>
			
				<linearGradient id="SVGID_00000085229170023932294900000007949492451209284239_" gradientUnits="userSpaceOnUse" x1="2062.8511" y1="853.3942" x2="1968.6995" y2="2204.4675">
				<stop  offset="0" style="stop-color:#FF9085"/>
				<stop  offset="1" style="stop-color:#FB6FBB"/>
			</linearGradient>
			<path style="opacity:0.3;fill:url(#SVGID_00000085229170023932294900000007949492451209284239_);" d="M2763.402,1433.801
				c0.114,2.735,0,5.433-0.336,8.054l-27.499,5.469c0,0-2.735-5.994-7.904-17.195c-2.435-5.694-5.919-12.475-9.927-20.493
				c-3.858-8.129-8.879-17.12-14.423-27.31c-11.314-20.154-25.699-44.467-44.505-70.954c-18.77-26.449-41.545-55.369-69.23-84.627
				c-27.61-29.258-59.978-58.892-96.916-87.139c-18.731-13.785-38.137-27.833-59.078-40.57c-2.585-1.648-5.208-3.298-7.792-4.946
				c-2.66-1.573-5.356-3.108-8.016-4.683c-5.358-3.108-10.752-6.256-16.146-9.441c-11.091-5.806-22.103-12.175-33.641-17.645
				c-45.741-22.964-95.643-41.882-148.052-56.08c-26.224-7.006-53.123-12.55-80.358-17.158l-20.566-2.885
				c-3.41-0.45-6.931-1.048-10.229-1.423l-10.002-1.05l-10.002-1.086c-3.333-0.337-6.518-0.748-10.414-0.937l-22.327-1.46
				l-2.81-0.188l-1.386-1.591l-0.375-1.517h-0.336l-4.871,1.292l-10.489,0.403c-6.968-0.225-13.973-0.194-20.941-0.044
				l-20.943,0.223c-7.006,0.3-13.973,0.654-20.941,0.916c-27.872,1.35-55.669,3.831-83.054,8.1l-10.302,1.523l-10.191,1.846
				c-6.781,1.237-13.598,2.404-20.341,3.752c-13.45,2.96-26.899,5.661-40.086,9.257c-13.262,3.146-26.224,7.194-39.224,10.94
				c-6.443,2.023-12.812,4.197-19.179,6.295c-3.185,1.048-6.369,2.099-9.554,3.147c-3.146,1.162-6.256,2.323-9.366,3.485
				c-25.174,8.877-49.224,19.443-72.602,30.343c-11.575,5.694-23.077,11.202-34.128,17.308
				c-11.239,5.806-21.953,12.214-32.668,18.356c-42.445,25.176-80.356,53.009-113.549,80.919
				c-33.228,27.985-61.513,56.344-85.152,82.867c-23.637,26.524-42.482,51.248-57.467,72.04
				c-7.343,10.489-14.012,19.854-19.256,28.172c-5.356,8.316-10.039,15.285-13.56,21.391c-1.873,3.146-3.523,5.881-4.946,8.243
				c-2.996,4.981-8.991,7.154-14.385,5.431c48.326-78.41,276.022-414.146,650.084-440.745
				C2357.758,922.289,2754.823,1201.609,2763.402,1433.801z"/>
			
				<linearGradient id="SVGID_00000152237171663077893130000005186749944035769011_" gradientUnits="userSpaceOnUse" x1="2847.3809" y1="796.4586" x2="2734.9631" y2="2409.6482">
				<stop  offset="0" style="stop-color:#FF9085"/>
				<stop  offset="1" style="stop-color:#FB6FBB"/>
			</linearGradient>
			<polygon style="fill:url(#SVGID_00000152237171663077893130000005186749944035769011_);" points="3019.624,1405.445 
				2883.282,1795.313 2592.636,1371.364 			"/>
			
				<linearGradient id="SVGID_00000150099944555563739700000014984639687338421175_" gradientUnits="userSpaceOnUse" x1="2847.3809" y1="796.4586" x2="2734.9631" y2="2409.6482">
				<stop  offset="0" style="stop-color:#FF9085"/>
				<stop  offset="1" style="stop-color:#FB6FBB"/>
			</linearGradient>
			<polygon style="opacity:0.3;fill:url(#SVGID_00000150099944555563739700000014984639687338421175_);" points="3019.624,1405.445 
				2883.282,1795.313 2592.636,1371.364 			"/>
			
				<linearGradient id="SVGID_00000017507941054191028250000013568406904395829915_" gradientUnits="userSpaceOnUse" x1="2873.4849" y1="799.2209" x2="2761.1958" y2="2410.5664">
				<stop  offset="0" style="stop-color:#FF9085"/>
				<stop  offset="1" style="stop-color:#FB6FBB"/>
			</linearGradient>
			<polygon style="fill:url(#SVGID_00000017507941054191028250000013568406904395829915_);" points="3045.848,1405.445 
				2886.092,1795.313 2618.86,1373.457 			"/>
		</g>
		<g>
			<g>
				<g>
					<g>
						
							<linearGradient id="SVGID_00000056425274474759986070000000207023588380553149_" gradientUnits="userSpaceOnUse" x1="3227.2329" y1="2779.0803" x2="2759.6692" y2="2380.2268" gradientTransform="matrix(1 0 0 1 27.2034 0)">
							<stop  offset="0" style="stop-color:#444B8C"/>
							<stop  offset="0.9964" style="stop-color:#26264F"/>
						</linearGradient>
						<path style="fill:url(#SVGID_00000056425274474759986070000000207023588380553149_);" d="M3148.656,1928.506v986.655
							c0,14.755-11.983,18.953-25.595,20.583l-482.565,67.441l-7.558,0.91c-15.533,1.871-28.287-9.555-28.287-25.397V1919.353
							c0-15.842,12.754-28.542,28.287-28.224l10.255,0.21l484.103,32.095C3140.9,1923.69,3148.656,1913.751,3148.656,1928.506z"/>
						
							<linearGradient id="SVGID_00000155116385115832776880000017461767084836870802_" gradientUnits="userSpaceOnUse" x1="-1215.064" y1="4233.6982" x2="594.9437" y2="4301.0288" gradientTransform="matrix(0 -1 1 0 -1361.8289 1734.3226)">
							<stop  offset="0" style="stop-color:#444B8C"/>
							<stop  offset="0.9964" style="stop-color:#26264F"/>
						</linearGradient>
						<path style="fill:url(#SVGID_00000155116385115832776880000017461767084836870802_);" d="M3163.138,1928.277v985.666
							c0,14.74-11.076,28.134-24.659,29.771l-490.007,59.029c-15.501,1.867-28.229-9.548-28.229-25.373V1919.124
							c0-15.825,12.728-28.512,28.229-28.195l490.007,10.042C3152.062,1901.25,3163.138,1913.537,3163.138,1928.277z"/>
						
							<linearGradient id="SVGID_00000155118402928279148050000015495473860529844137_" gradientUnits="userSpaceOnUse" x1="3010.0103" y1="2243.5212" x2="2409.2952" y2="3051.2236" gradientTransform="matrix(1 0 0 1 27.2034 0)">
							<stop  offset="0" style="stop-color:#FFC444"/>
							<stop  offset="0.9964" style="stop-color:#F36F56"/>
						</linearGradient>
						<path style="fill:url(#SVGID_00000155118402928279148050000015495473860529844137_);" d="M3147.835,1982.763v914.071
							c0,13.776-10.373,26.268-23.09,27.764l-460.719,54.209c-14.398,1.694-26.218-8.965-26.218-23.692v-977.171
							c0-14.727,11.82-26.625,26.218-26.44l460.719,5.915C3137.462,1957.582,3147.835,1968.987,3147.835,1982.763z"/>
					</g>
				</g>
				<g style="opacity:0.48;">
					<path style="fill:#FFFFFF;" d="M3007.348,2516.271c-44.249-116.827-164.665-91.826-202.526-211.081
						c-31.026-97.728,37.837-152.025,10.943-264.901c-15.126-63.489-52.458-112.006-90.79-147.792l-76.503-1.568
						c-15.5-0.318-28.229,12.37-28.229,28.195v1058.245c0,15.825,12.729,27.24,28.229,25.372l378.149-45.553
						c-29.742-48.695-41.72-93.42-45.956-130.629C2965.232,2690.995,3047.686,2622.774,3007.348,2516.271z"/>
				</g>
			</g>
			<g>
				<path style="fill:#FFFFFF;" d="M3092.55,2424.221c0,100.001-78.026,186.407-175.897,193.104
					c-99.71,6.823-181.927-71.396-181.927-174.824s82.216-190.048,181.927-193.412
					C3014.524,2245.787,3092.55,2324.221,3092.55,2424.221z"/>
				<g>
					<g>
						<g>
							<g>
								
									<linearGradient id="SVGID_00000010283923852525749520000003063119963944092061_" gradientUnits="userSpaceOnUse" x1="3130.2424" y1="2635.197" x2="2892.8027" y2="2397.7573">
									<stop  offset="0" style="stop-color:#FB6FBB"/>
									<stop  offset="1" style="stop-color:#FF9085"/>
								</linearGradient>
								<path style="fill:url(#SVGID_00000010283923852525749520000003063119963944092061_);" d="M2827.929,2480.077
									c-1.939,0.107-3.777-0.976-4.548-2.883c-5.151-12.735-7.764-26.377-7.764-40.538c0-60.367,47.949-111.432,106.301-113.807
									c33.156-1.35,64.533,13.743,84.042,40.29c1.555,2.115,1.109,5.215-0.997,6.926c-2.106,1.711-5.076,1.383-6.633-0.734
									c-17.749-24.123-46.281-37.818-76.412-36.564c-52.986,2.207-96.486,48.596-96.486,103.389
									c0,12.858,2.369,25.24,7.038,36.797c1.012,2.505-0.2,5.487-2.709,6.658
									C2829.161,2479.892,2828.54,2480.043,2827.929,2480.077z"/>
							</g>
							<g>
								
									<linearGradient id="SVGID_00000171716150181647977560000006240848274608024225_" gradientUnits="userSpaceOnUse" x1="3201.4119" y1="2564.0276" x2="2963.9727" y2="2326.5884">
									<stop  offset="0" style="stop-color:#FB6FBB"/>
									<stop  offset="1" style="stop-color:#FF9085"/>
								</linearGradient>
								<path style="fill:url(#SVGID_00000171716150181647977560000006240848274608024225_);" d="M2987.206,2372.705
									c-2.58,0.118-4.7-1.821-4.755-4.505c-0.056-2.72,2.028-5.017,4.655-5.193l11.878-0.771l2.031-12.587
									c0.435-2.699,2.887-4.604,5.463-4.265c2.58,0.339,4.318,2.804,3.884,5.502l-2.679,16.633
									c-0.377,2.346-2.297,4.054-4.572,4.209l-15.801,0.973C2987.275,2372.702,2987.24,2372.704,2987.206,2372.705z"/>
							</g>
						</g>
						<g>
							<g>
								
									<linearGradient id="SVGID_00000004505440242605929420000009097302084395354021_" gradientUnits="userSpaceOnUse" x1="3123.958" y1="2641.4824" x2="2886.5186" y2="2404.0432">
									<stop  offset="0" style="stop-color:#FB6FBB"/>
									<stop  offset="1" style="stop-color:#FF9085"/>
								</linearGradient>
								<path style="fill:url(#SVGID_00000004505440242605929420000009097302084395354021_);" d="M2921.919,2539.636
									c-32.635,1.995-63.102-11.368-83.492-36.748c-1.668-2.076-1.297-5.24,0.828-7.064c2.125-1.824,5.197-1.617,6.862,0.458
									c18.503,23.059,46.161,35.221,75.802,33.437c52.462-3.159,94.762-49.487,94.762-103.301c0-11.044-1.76-21.792-5.234-31.951
									c-0.863-2.522,0.439-5.389,2.907-6.401c2.466-1.011,5.163,0.212,6.024,2.733c3.818,11.179,5.753,22.999,5.753,35.138
									C3026.132,2485.116,2979.636,2536.107,2921.919,2539.636z"/>
							</g>
							<g>
								
									<linearGradient id="SVGID_00000176035580374957060940000008419507143635639973_" gradientUnits="userSpaceOnUse" x1="3053.8579" y1="2711.5815" x2="2816.4187" y2="2474.1421">
									<stop  offset="0" style="stop-color:#FB6FBB"/>
									<stop  offset="1" style="stop-color:#FF9085"/>
								</linearGradient>
								<path style="fill:url(#SVGID_00000176035580374957060940000008419507143635639973_);" d="M2836.566,2517.833
									c-0.321,0.019-0.647,0.006-0.974-0.043c-2.65-0.392-4.365-2.929-3.83-5.668l3.227-16.549c0.461-2.361,2.47-4.2,4.795-4.33
									c0.018-0.001,0.036-0.002,0.054-0.003l16.621-0.695c2.692-0.121,4.848,2.041,4.819,4.797
									c-0.03,2.756-2.259,5.128-4.927,5.227l-12.577,0.583l-2.42,12.389C2840.886,2515.939,2838.847,2517.699,2836.566,2517.833z"
									/>
							</g>
						</g>
					</g>
					<g>
						
							<linearGradient id="SVGID_00000090269471330219283590000006133877154019891362_" gradientUnits="userSpaceOnUse" x1="3133.0845" y1="2632.3562" x2="2895.6448" y2="2394.9167">
							<stop  offset="0" style="stop-color:#FB6FBB"/>
							<stop  offset="1" style="stop-color:#FF9085"/>
						</linearGradient>
						<path style="fill:url(#SVGID_00000090269471330219283590000006133877154019891362_);" d="M2912.11,2484.179
							c-1.523,0.085-3.057-0.25-4.435-1.041l-32.373-18.606c-4.027-2.314-5.29-7.646-2.82-11.907
							c2.47-4.254,7.731-5.822,11.75-3.508l26.143,15.078l58.306-73.208c3.017-3.784,8.313-4.464,11.831-1.507
							c3.515,2.95,3.924,8.408,0.916,12.193l-62.868,79.094C2916.897,2482.856,2914.52,2484.044,2912.11,2484.179z"/>
					</g>
				</g>
			</g>
		</g>
		<g>
			
				<linearGradient id="SVGID_00000044179320581696986290000000485262621976787603_" gradientUnits="userSpaceOnUse" x1="-587.9363" y1="2990.5239" x2="-677.9401" y2="4282.0767" gradientTransform="matrix(-1 0 0 -1 1644.9061 6335.6074)">
				<stop  offset="0.0036" style="stop-color:#E38DDD"/>
				<stop  offset="1" style="stop-color:#9571F6"/>
			</linearGradient>
			<path style="fill:url(#SVGID_00000044179320581696986290000000485262621976787603_);" d="M1596.011,2815.923l145.998-29.139
				l22.165-4.408c0,0,2.204,4.832,6.371,13.86c1.962,4.59,4.771,10.056,8.002,16.518c3.109,6.552,7.157,13.799,11.626,22.013
				c9.119,16.245,20.714,35.842,35.873,57.191c15.129,21.319,33.487,44.629,55.803,68.213
				c22.255,23.583,48.345,47.469,78.118,70.237c15.098,11.111,30.74,22.435,47.62,32.701c2.083,1.329,4.198,2.658,6.281,3.987
				c2.144,1.268,4.317,2.505,6.461,3.774c4.319,2.505,8.667,5.042,13.015,7.609c8.939,4.68,17.815,9.814,27.116,14.222
				c36.869,18.51,77.092,33.759,119.335,45.203c21.137,5.647,42.819,10.116,64.771,13.83l16.577,2.325
				c2.748,0.363,5.587,0.845,8.245,1.147l8.062,0.846l8.062,0.876c2.687,0.271,5.253,0.603,8.394,0.755l17.997,1.177l2.265,0.152
				l1.118,1.15l0.302,1.091h0.271l3.927-0.91l8.454-0.259c5.616,0.181,11.263,0.189,16.879,0.068l16.881-0.164
				c5.647-0.242,11.263-0.519,16.879-0.73c22.466-1.088,44.871-3.084,66.945-6.525l8.304-1.226l8.214-1.487
				c5.466-0.997,10.961-1.937,16.396-3.024c10.841-2.385,21.681-4.562,32.31-7.461c10.69-2.536,21.137-5.798,31.616-8.818
				c5.193-1.631,10.327-3.383,15.459-5.074c2.567-0.845,5.134-1.691,7.701-2.536c2.536-0.936,5.042-1.873,7.549-2.809
				c20.291-7.155,39.677-15.672,58.52-24.458c9.33-4.59,18.601-9.029,27.509-13.951c9.059-4.68,17.694-9.845,26.332-14.796
				c34.213-20.292,64.77-42.728,91.525-65.224c26.783-22.557,49.582-45.415,68.636-66.794
				c19.053-21.379,34.242-41.307,46.321-58.067c5.918-8.454,11.294-16.003,15.521-22.708c4.317-6.703,8.092-12.32,10.93-17.242
				c1.51-2.536,2.84-4.74,3.987-6.644c2.415-4.015,7.247-5.767,11.595-4.378c0.604,0.181,1.178,0.423,1.752,0.724l0.725,0.394
				c4.709,2.536,6.613,8.333,4.288,13.165c-0.936,1.993-2.054,4.317-3.322,6.976c-2.325,5.072-5.708,11.384-9.603,18.781
				c-3.774,7.549-8.575,15.792-13.86,25.124c-10.81,18.479-24.641,40.644-42.396,64.862c-17.786,24.157-39.437,50.427-65.495,76.969
				c-26.059,26.482-56.316,53.477-91.012,78.752c-8.757,6.221-17.544,12.652-26.844,18.601
				c-9.121,6.221-18.693,12.018-28.354,17.906c-19.477,11.475-39.77,22.739-61.208,32.703c-2.657,1.268-5.315,2.567-8.003,3.835
				c-2.718,1.208-5.435,2.417-8.152,3.593c-5.466,2.385-10.931,4.863-16.458,7.188c-11.172,4.409-22.374,9.088-33.94,13.013
				c-11.444,4.289-23.191,7.882-34.997,11.657c-5.918,1.781-11.899,3.382-17.907,5.103l-8.999,2.476l-9.09,2.235
				c-24.276,6.19-49.159,10.78-74.313,14.404c-6.311,0.845-12.621,1.66-18.933,2.505l-19.023,1.873
				c-6.371,0.694-12.743,1.028-19.115,1.42l-9.603,0.603l-4.771,0.302l-5.374,0.121l-18.028,0.513
				c-2.868,0.152-6.281,0.091-9.572,0.06l-9.935-0.09l-9.935-0.121c-3.32-0.031-6.431-0.271-9.662-0.392
				c-6.402-0.302-12.833-0.574-19.235-0.876c-25.577-1.842-51.062-4.65-76.215-8.877c-50.217-8.546-99.074-21.953-144.731-39.649
				c-11.505-4.196-22.587-9.209-33.729-13.829c-5.466-2.506-10.9-5.013-16.337-7.52c-2.688-1.268-5.405-2.536-8.093-3.774
				c-2.657-1.329-5.284-2.688-7.941-4.016c-21.288-10.356-41.307-22.043-60.695-33.699c-38.379-23.915-72.742-49.853-102.636-76.004
				c-29.925-26.149-55.258-52.631-76.487-77.211c-21.229-24.58-38.017-47.528-51.363-66.794
				c-6.583-9.693-12.472-18.36-17.183-26.149c-4.83-7.73-8.998-14.314-12.078-19.809
				C1620.076,2862.183,1596.011,2815.923,1596.011,2815.923z"/>
			
				<linearGradient id="SVGID_00000018922260469520710680000007222627316103998641_" gradientUnits="userSpaceOnUse" x1="-661.5038" y1="3074.4998" x2="-737.3938" y2="4163.5195" gradientTransform="matrix(-1 0 0 -1 1644.9061 6335.6074)">
				<stop  offset="0.0036" style="stop-color:#E38DDD"/>
				<stop  offset="1" style="stop-color:#9571F6"/>
			</linearGradient>
			<path style="opacity:0.3;fill:url(#SVGID_00000018922260469520710680000007222627316103998641_);" d="M1741.737,2793.276
				c-0.091-2.204,0-4.379,0.271-6.492l22.165-4.408c0,0,2.204,4.832,6.371,13.86c1.962,4.59,4.771,10.056,8.002,16.518
				c3.109,6.552,7.157,13.799,11.626,22.013c9.119,16.245,20.714,35.842,35.873,57.191c15.129,21.319,33.487,44.629,55.803,68.213
				c22.255,23.583,48.345,47.469,78.118,70.237c15.098,11.111,30.74,22.435,47.62,32.701c2.083,1.329,4.198,2.658,6.281,3.987
				c2.144,1.268,4.317,2.505,6.461,3.774c4.319,2.505,8.667,5.042,13.015,7.609c8.939,4.68,17.815,9.814,27.116,14.222
				c36.869,18.51,77.092,33.759,119.335,45.203c21.137,5.647,42.819,10.116,64.771,13.83l16.577,2.325
				c2.748,0.363,5.587,0.845,8.245,1.147l8.062,0.846l8.062,0.876c2.687,0.271,5.253,0.603,8.394,0.755l17.997,1.177l2.265,0.152
				l1.118,1.15l0.302,1.091h0.271l3.927-0.91l8.454-0.259c5.616,0.181,11.263,0.189,16.879,0.068l16.881-0.164
				c5.647-0.242,11.263-0.519,16.879-0.73c22.466-1.088,44.871-3.084,66.945-6.525l8.304-1.226l8.214-1.487
				c5.466-0.997,10.961-1.937,16.396-3.024c10.841-2.385,21.681-4.562,32.31-7.461c10.69-2.536,21.137-5.798,31.616-8.818
				c5.193-1.631,10.327-3.383,15.459-5.074c2.567-0.845,5.134-1.691,7.701-2.536c2.536-0.936,5.042-1.873,7.549-2.809
				c20.291-7.155,39.677-15.672,58.52-24.458c9.33-4.59,18.601-9.029,27.509-13.951c9.059-4.68,17.694-9.845,26.332-14.796
				c34.213-20.292,64.77-42.728,91.525-65.224c26.783-22.557,49.582-45.415,68.636-66.794
				c19.053-21.379,34.242-41.307,46.321-58.067c5.918-8.454,11.294-16.003,15.521-22.708c4.317-6.703,8.092-12.32,10.93-17.242
				c1.51-2.536,2.84-4.74,3.987-6.644c2.415-4.015,7.247-5.767,11.595-4.378c-38.953,63.201-222.485,333.819-523.994,355.258
				C2068.703,3205.576,1748.652,2980.432,1741.737,2793.276z"/>
			
				<linearGradient id="SVGID_00000179646363467130398110000012818447461816703921_" gradientUnits="userSpaceOnUse" x1="-29.141" y1="3028.6072" x2="-119.7542" y2="4328.9038" gradientTransform="matrix(-1 0 0 -1 1644.9061 6335.6074)">
				<stop  offset="0.0036" style="stop-color:#E38DDD"/>
				<stop  offset="1" style="stop-color:#9571F6"/>
			</linearGradient>
			<polygon style="fill:url(#SVGID_00000179646363467130398110000012818447461816703921_);" points="1535.212,2816.133 
				1645.109,2501.883 1879.382,2843.603 			"/>
			
				<linearGradient id="SVGID_00000153694843381221310260000016283173436886605450_" gradientUnits="userSpaceOnUse" x1="-29.141" y1="3028.6072" x2="-119.7542" y2="4328.9038" gradientTransform="matrix(-1 0 0 -1 1644.9061 6335.6074)">
				<stop  offset="0.0036" style="stop-color:#E38DDD"/>
				<stop  offset="1" style="stop-color:#9571F6"/>
			</linearGradient>
			<polygon style="opacity:0.3;fill:url(#SVGID_00000153694843381221310260000016283173436886605450_);" points="1535.212,2816.133 
				1645.109,2501.883 1879.382,2843.603 			"/>
			
				<linearGradient id="SVGID_00000109720015787221680660000013618428158309187756_" gradientUnits="userSpaceOnUse" x1="-8.1001" y1="3030.8337" x2="-98.6096" y2="4329.6436" gradientTransform="matrix(-1 0 0 -1 1644.9061 6335.6074)">
				<stop  offset="0.0036" style="stop-color:#E38DDD"/>
				<stop  offset="1" style="stop-color:#9571F6"/>
			</linearGradient>
			<polygon style="fill:url(#SVGID_00000109720015787221680660000013618428158309187756_);" points="1514.075,2816.133 
				1642.844,2501.883 1858.244,2841.916 			"/>
		</g>
	</g>
</g>
</svg>
