<svg width="28" height="28" viewBox="0 0 28 28" fill="none" xmlns="http://www.w3.org/2000/svg">
<path d="M17.4793 3.06506L17.4793 3.06505C16.4544 2.04037 15.2487 1.54084 13.8005 1.54084C12.3521 1.54084 11.1466 2.04037 10.1219 3.06506C9.09699 4.08995 8.59724 5.29564 8.59724 6.74364C8.59724 8.19206 9.09699 9.39776 10.1219 10.4224L10.1219 10.4225C11.147 11.4471 12.3525 11.9469 13.8005 11.9469C15.2487 11.9469 16.4544 11.4473 17.4793 10.4224L17.4793 10.4224C18.504 9.39754 19.0037 8.19206 19.0037 6.74364C19.0037 5.29564 18.504 4.08996 17.4793 3.06506ZM18.4983 11.4412C17.2058 12.7337 15.6269 13.3877 13.8005 13.3877C11.9745 13.3877 10.3956 12.7335 9.10291 11.4414C7.81064 10.1492 7.1564 8.57028 7.1564 6.74364C7.1564 4.91743 7.81064 3.33856 9.10291 2.04629C10.3952 0.754036 11.9738 0.1 13.8005 0.1C15.6267 0.1 17.2056 0.754036 18.4981 2.04609C19.7905 3.33878 20.4446 4.91765 20.4446 6.74364C20.4446 8.57027 19.7903 10.1489 18.4983 11.4412Z" fill="#009393" stroke="white" stroke-width="0.2"/>
<path d="M25.501 21.5376L25.501 21.5375C25.4635 20.9961 25.3876 20.4046 25.2755 19.779C25.1625 19.1497 25.0172 18.5554 24.8435 18.013M25.501 21.5376L24.9388 17.9825M25.501 21.5376C25.5383 22.0683 25.5572 22.6225 25.5574 23.1845L25.501 21.5376ZM24.8435 18.013L24.9388 17.9825M24.8435 18.013C24.8435 18.013 24.8435 18.013 24.8435 18.013L24.9388 17.9825M24.8435 18.013C24.6646 17.4543 24.4215 16.9023 24.1204 16.373L24.1204 16.3729C23.8091 15.825 23.4441 15.3493 23.0357 14.9588L23.0357 14.9588C22.6108 14.5522 22.0893 14.2241 21.484 13.9842M24.9388 17.9825C24.7576 17.4171 24.5117 16.8587 24.2073 16.3235C23.8918 15.7681 23.521 15.2845 23.1048 14.8865C22.6697 14.4702 22.1369 14.1354 21.5208 13.8912M21.484 13.9842C21.484 13.9842 21.484 13.9842 21.484 13.9842L21.5208 13.8912M21.484 13.9842C20.8829 13.7464 20.2152 13.6253 19.4987 13.6253C19.2449 13.6253 18.9903 13.7268 18.4571 14.0739M21.484 13.9842L21.5208 13.8912M21.5208 13.8912C20.9069 13.6483 20.2265 13.5253 19.4987 13.5253C19.2128 13.5253 18.9364 13.6426 18.4026 13.9901M12.1693 15.3772C11.5562 15.1792 11.0591 14.9602 10.6929 14.7265C10.268 14.455 9.88348 14.2072 9.55002 13.9899C9.0166 13.6424 8.74017 13.5251 8.45435 13.5251C7.72632 13.5251 7.04614 13.6483 6.4324 13.8914C5.81674 14.1352 5.28375 14.4699 4.84818 14.8867M12.1693 15.3772L12.1385 15.4723C12.1385 15.4723 12.1385 15.4723 12.1385 15.4724M12.1693 15.3772L12.1385 15.4724M12.1693 15.3772C12.7685 15.5709 13.3764 15.6692 13.9763 15.6692C14.5766 15.6692 15.1845 15.5709 15.7833 15.3772M12.1385 15.4724C11.5208 15.2728 11.015 15.0507 10.6391 14.8108L10.6391 14.8108C10.214 14.5391 9.8292 14.2912 9.49543 14.0737L9.49543 14.0737C8.96269 13.7266 8.70813 13.6251 8.45435 13.6251C7.73763 13.6251 7.0701 13.7464 6.46923 13.9844L6.46921 13.9844C5.86437 14.2239 5.34266 14.552 4.91731 14.959M12.1385 15.4724C12.7472 15.6692 13.3655 15.7692 13.9763 15.7692C14.5875 15.7692 15.2058 15.6692 15.8141 15.4724M4.91731 14.959C4.91731 14.959 4.91731 14.959 4.91731 14.959L4.84818 14.8867M4.91731 14.959C4.50891 15.3498 4.14386 15.8253 3.83284 16.3729L3.83283 16.3729C3.53212 16.9023 3.28886 17.4542 3.10989 18.0132M4.91731 14.959L4.84818 14.8867M4.84818 14.8867L3.10989 18.0132M3.10989 18.0132C2.93642 18.5557 2.7911 19.1497 2.67814 19.779L2.67814 19.7791C2.56588 20.4037 2.49013 20.9954 2.45261 21.5381L2.4526 21.5382C2.4156 22.0704 2.39688 22.6246 2.39688 23.1847C2.39688 24.6235 2.85339 25.7789 3.74667 26.6297C4.62993 27.4703 5.80089 27.8999 7.23605 27.8999H20.7182C22.153 27.8999 23.3239 27.4703 24.2074 26.6297C25.1009 25.7796 25.5574 24.6238 25.5574 23.1845L3.10989 18.0132ZM15.8141 15.4724L15.7833 15.3772M15.8141 15.4724C16.4324 15.2726 16.938 15.0505 17.3145 14.8106L17.3146 14.8106C17.7437 14.5364 18.1283 14.2884 18.4571 14.0739M15.8141 15.4724C15.8141 15.4723 15.8141 15.4723 15.8141 15.4723L15.7833 15.3772M15.7833 15.3772C16.3971 15.179 16.894 14.96 17.2607 14.7263C17.6897 14.4522 18.074 14.2044 18.4026 13.9901M18.4571 14.0739L18.4026 13.9901M18.4571 14.0739C18.4571 14.0739 18.4572 14.0739 18.4572 14.0739L18.4026 13.9901M4.74014 25.586L4.74013 25.586C4.12924 25.0045 3.83771 24.2136 3.83771 23.1847C3.83771 22.6579 3.85509 22.1375 3.88986 21.6378C3.88986 21.6378 3.88986 21.6377 3.88987 21.6377L3.98962 21.6447L4.74014 25.586ZM4.74014 25.586C5.36087 26.1768 6.18179 26.4591 7.23605 26.4591H20.718C21.7721 26.4591 22.593 26.1768 23.2139 25.5858C23.8248 25.0045 24.1164 24.2138 24.1166 23.1847V23.1846C24.1164 22.6587 24.0989 22.1408 24.0642 21.6449H24.0643L24.0638 21.638C24.0297 21.1467 23.96 20.6069 23.8574 20.0334L23.8574 20.0334C23.7559 19.4676 23.626 18.9356 23.4714 18.4524C23.3226 17.9877 23.1194 17.5274 22.8677 17.0848M4.74014 25.586L22.7808 17.1342M8.35241 15.067L8.37567 15.0793C8.43629 15.1116 8.54121 15.1715 8.70892 15.2808M8.35241 15.067L8.6543 15.3646M8.35241 15.067L8.32606 15.0677M8.35241 15.067L8.32606 15.0677M8.70892 15.2808L8.6543 15.3646M8.70892 15.2808C8.70891 15.2808 8.7089 15.2808 8.70889 15.2808L8.6543 15.3646M8.70892 15.2808C9.04593 15.5005 9.43446 15.7511 9.86404 16.0254M8.6543 15.3646C8.99161 15.5844 9.3804 15.8352 9.81021 16.1097M9.86404 16.0254C9.86402 16.0254 9.86399 16.0254 9.86397 16.0254L9.81021 16.1097M9.86404 16.0254C10.3393 16.3284 10.9551 16.6042 11.6954 16.8432L11.6954 16.8432C12.4483 17.0866 13.2155 17.2101 13.9765 17.2101C14.7375 17.2101 15.5049 17.0866 16.2574 16.8434L16.2574 16.8434C16.9983 16.604 17.6139 16.3284 18.0898 16.025M9.86404 16.0254L9.81021 16.1097M9.81021 16.1097L18.0898 16.025M18.0898 16.025L18.1436 16.1093L18.0899 16.025C18.0899 16.025 18.0898 16.025 18.0898 16.025ZM18.0898 16.025C18.5295 15.744 18.9071 15.5006 19.2441 15.2808M18.0898 16.025L19.2441 15.2808M8.32606 15.0677C7.84447 15.0805 7.39843 15.1661 6.99973 15.3239M8.32606 15.0677L5.91357 15.9999C6.20558 15.7203 6.57169 15.4933 6.99973 15.3239M19.2441 15.2808L19.2442 15.2808C19.4117 15.1717 19.5167 15.1116 19.5773 15.0793L19.6006 15.067L19.6269 15.0677C20.1087 15.0805 20.5548 15.1661 20.9537 15.3239L20.9537 15.3239C21.3816 15.4933 21.7476 15.7205 22.0396 15.9999C22.3484 16.2952 22.6267 16.6607 22.8677 17.0848M19.2441 15.2808L21.9705 16.0721C22.2713 16.3599 22.5439 16.7172 22.7808 17.1342M22.8677 17.0848L22.7808 17.1342M22.8677 17.0848C22.8677 17.0848 22.8677 17.0848 22.8677 17.0848L22.7808 17.1342M6.99973 15.3239L7.03653 15.4169L6.99973 15.3239C6.99973 15.3239 6.99973 15.3239 6.99973 15.3239Z" fill="#1E1E1E" stroke="white" stroke-width="0.2"/>
</svg>
