<svg width="28" height="28" viewBox="0 0 28 28" fill="none" xmlns="http://www.w3.org/2000/svg">
<g clip-path="url(#clip0_141_685)">
<path d="M18.466 14.5988L18.1399 14.8234L18.5142 14.9526C20.4657 15.626 22.2546 16.7385 23.7581 18.2419C26.3176 20.8015 27.7476 24.1883 27.7986 27.8H26.0109C25.9037 21.268 20.5571 15.9875 14 15.9875C7.44289 15.9875 2.0963 21.268 1.98914 27.8H0.20141C0.25235 24.1883 1.68239 20.8015 4.24194 18.2419C5.74542 16.7385 7.53437 15.626 9.48581 14.9527L9.86014 14.8235L9.53402 14.5989C7.46474 13.1737 6.10625 10.7893 6.10625 8.09375C6.10625 3.74132 9.64757 0.2 14 0.2C18.3524 0.2 21.8937 3.74132 21.8937 8.09375C21.8937 10.7893 20.5353 13.1737 18.466 14.5988ZM14 1.9875C10.6328 1.9875 7.89375 4.7266 7.89375 8.09375C7.89375 11.4609 10.6328 14.2 14 14.2C17.3672 14.2 20.1063 11.4609 20.1063 8.09375C20.1063 4.7266 17.3672 1.9875 14 1.9875Z" fill="#1E1E1E" stroke="white" stroke-width="0.4"/>
<path d="M7.84876 27.8438H6.16018C6.29266 23.6341 9.75883 20.25 14 20.25C18.2412 20.25 21.7073 23.6341 21.8398 27.8438H20.1512C20.1034 26.6528 19.7153 25.5476 19.0823 24.6233L18.9121 24.3749L18.6992 24.5878L16.1554 27.1316L16.0458 27.2412L16.0953 27.3881C16.1444 27.534 16.1789 27.6863 16.1968 27.8438H11.8032C11.8211 27.6863 11.8557 27.534 11.9048 27.3883L11.9543 27.2413L11.8446 27.1317L9.30084 24.5879L9.08795 24.375L8.91781 24.6234C8.28472 25.5476 7.89661 26.6528 7.84876 27.8438ZM13.0379 25.9383L13.1475 26.0479L13.2944 25.9985C13.5162 25.9239 13.7532 25.8828 14 25.8828C14.2468 25.8828 14.4838 25.9239 14.7055 25.9985L14.8525 26.048L14.9621 25.9384L17.5059 23.3946L17.7188 23.1817L17.4704 23.0116C16.4818 22.3344 15.2862 21.9375 14 21.9375C12.7138 21.9375 11.5182 22.3344 10.5296 23.0115L10.2812 23.1816L10.4941 23.3945L13.0379 25.9383Z" fill="#009393" stroke="white" stroke-width="0.5"/>
</g>
<defs>
<clipPath id="clip0_141_685">
<rect width="28" height="28" fill="white"/>
</clipPath>
</defs>
</svg>
