<svg width="21" height="21" viewBox="0 0 21 21" fill="none" xmlns="http://www.w3.org/2000/svg">
<g clip-path="url(#clip0_144_937)">
<path d="M16.6249 10.5404C16.1411 10.5404 15.75 10.9324 15.75 11.4153V18.4154C15.75 18.8975 15.3579 19.2903 14.8751 19.2903H2.625C2.14194 19.2903 1.75005 18.8975 1.75005 18.4154V6.16532C1.75005 5.68323 2.14194 5.29037 2.625 5.29037H9.62505C10.1089 5.29037 10.5 4.89832 10.5 4.41543C10.5 3.93237 10.1089 3.54032 9.62505 3.54032H2.625C1.17776 3.54032 0 4.71808 0 6.16532V18.4154C0 19.8626 1.17776 21.0404 2.625 21.0404H14.8751C16.3223 21.0404 17.5001 19.8626 17.5001 18.4154V11.4153C17.5001 10.9315 17.1088 10.5404 16.6249 10.5404Z" fill="#626262"/>
<path d="M8.20399 9.74329C8.14279 9.8045 8.10161 9.88236 8.08415 9.96632L7.46555 13.0604C7.43671 13.2038 7.48221 13.3517 7.58539 13.4558C7.66854 13.539 7.78053 13.5835 7.89525 13.5835C7.92313 13.5835 7.95213 13.581 7.98097 13.5749L11.0741 12.9563C11.1598 12.9387 11.2377 12.8977 11.2981 12.8363L18.2211 5.9133L15.1279 2.8203L8.20399 9.74329Z" fill="#626262"/>
<path d="M20.3595 0.680922C19.5065 -0.172235 18.1187 -0.172235 17.2663 0.680922L16.0554 1.89184L19.1486 4.985L20.3595 3.77392C20.7725 3.36184 21 2.81229 21 2.22782C21 1.64335 20.7725 1.0938 20.3595 0.680922Z" fill="#626262"/>
</g>
<defs>
<clipPath id="clip0_144_937">
<rect width="21" height="21" fill="white"/>
</clipPath>
</defs>
</svg>
