<svg width="19" height="19" viewBox="0 0 19 19" fill="none" xmlns="http://www.w3.org/2000/svg">
<path fill-rule="evenodd" clip-rule="evenodd" d="M17.1772 12.5348C17.1772 14.1393 15.8721 15.4424 14.2696 15.4424H4.73041C3.12799 15.4424 1.82282 14.1393 1.82282 12.5348V6.46516C1.82282 5.92967 1.96944 5.42673 2.22393 4.99507L6.87849 9.64963C7.57485 10.348 8.50737 10.7328 9.50101 10.7328C10.4926 10.7328 11.4251 10.348 12.1215 9.64963L16.776 4.99507C17.0306 5.42673 17.1772 5.92963 17.1772 6.46516V12.5348H17.1772ZM14.2696 3.5576H4.73041C4.06868 3.5576 3.45782 3.78156 2.96916 4.15417L7.67055 8.8576C8.1572 9.34217 8.80669 9.61096 9.50101 9.61096C10.1933 9.61096 10.8428 9.34217 11.3294 8.8576L16.0308 4.15417C15.5422 3.78156 14.9314 3.5576 14.2696 3.5576ZM14.2696 2.43571H4.73041C2.50901 2.43571 0.700928 4.24379 0.700928 6.4652V12.5349C0.700928 14.7583 2.50901 16.5644 4.73041 16.5644H14.2696C16.491 16.5644 18.2991 14.7583 18.2991 12.5349V6.46516C18.2991 4.24375 16.491 2.43571 14.2696 2.43571Z" fill="black"/>
</svg>
