<svg width="5" height="19" viewBox="0 0 5 19" fill="none" xmlns="http://www.w3.org/2000/svg">
<path d="M0 9.49999C0 10.7087 0.983615 11.6923 2.19231 11.6923C3.401 11.6923 4.38462 10.7087 4.38462 9.49999C4.38462 8.29129 3.401 7.30768 2.19231 7.30768C0.983615 7.30768 0 8.29129 0 9.49999Z" fill="black"/>
<path d="M0 16.8077C0 18.0164 0.983615 19 2.19231 19C3.401 19 4.38462 18.0164 4.38462 16.8077C4.38462 15.599 3.401 14.6154 2.19231 14.6154C0.983615 14.6154 0 15.599 0 16.8077Z" fill="black"/>
<path d="M0 2.19231C0 3.401 0.983615 4.38462 2.19231 4.38462C3.401 4.38462 4.38462 3.401 4.38462 2.19231C4.38462 0.983615 3.401 0 2.19231 0C0.983615 0 0 0.983615 0 2.19231Z" fill="black"/>
</svg>
