<svg width="24" height="24" viewBox="0 0 24 24" fill="none" xmlns="http://www.w3.org/2000/svg">
<g clip-path="url(#clip0_88_1104)">
<path d="M21.0762 11.7597C21.0762 8.87412 18.7286 6.52657 15.843 6.52654C13.8722 6.52654 12.0775 7.63692 11.1865 9.38097L2.85474 9.381C2.72856 9.38097 2.60755 9.43109 2.51832 9.52031L0.615355 11.4233C0.429557 11.6091 0.429579 11.9103 0.615355 12.0961L2.51832 13.999C2.60757 14.0883 2.72854 14.1384 2.85476 14.1384L3.8064 14.1384C3.95177 14.1383 4.08916 14.0719 4.17939 13.9579L4.63088 13.3877L5.40585 14.0291C5.58183 14.1748 5.83653 14.1748 6.01251 14.0291L6.78761 13.3876L7.23915 13.9579C7.32339 14.0645 7.4491 14.1297 7.58465 14.1376C7.72013 14.1454 7.85256 14.095 7.94855 13.999L8.57501 13.3726L9.19008 13.9876C9.27863 14.0762 9.3985 14.1262 9.52374 14.127L11.1856 14.1366C12.0763 15.8817 13.8717 16.9928 15.8431 16.9928C18.7286 16.9928 21.0762 14.6452 21.0762 11.7597ZM15.843 16.0413C14.1449 16.0413 12.6063 15.0327 11.9231 13.4719C11.8477 13.2997 11.678 13.188 11.49 13.1869L9.72467 13.1767L8.91138 12.3634C8.72561 12.1776 8.42437 12.1776 8.2386 12.3634L7.65351 12.9485L7.23179 12.4158C7.15233 12.3155 7.03586 12.2514 6.90861 12.238C6.78136 12.2246 6.65406 12.263 6.55547 12.3446L5.70917 13.045L4.86301 12.3446C4.76441 12.263 4.63714 12.2246 4.50984 12.238C4.38259 12.2514 4.26606 12.3155 4.18663 12.4158L3.57623 13.1868L3.05173 13.1869L1.62449 11.7597L3.0517 10.3325L11.4872 10.3325C11.6762 10.3325 11.8473 10.2206 11.923 10.0475C12.6062 8.4866 14.1448 7.47807 15.843 7.47803C18.2039 7.47807 20.1246 9.3988 20.1246 11.7597C20.1247 14.1206 18.2039 16.0413 15.843 16.0413Z" fill="black"/>
<path d="M19.1732 11.7597C19.1732 10.9727 18.5329 10.3324 17.746 10.3324C16.959 10.3324 16.3187 10.9727 16.3187 11.7597C16.3187 12.5466 16.959 13.1869 17.746 13.1869C18.5329 13.1869 19.1732 12.5466 19.1732 11.7597ZM17.746 12.2354C17.4837 12.2354 17.2702 12.022 17.2702 11.7597C17.2702 11.4974 17.4836 11.284 17.746 11.2839C18.009 11.284 18.2217 11.4967 18.2217 11.7597C18.2217 12.0227 18.0089 12.2354 17.746 12.2354Z" fill="black"/>
</g>
<defs>
<clipPath id="clip0_88_1104">
<rect width="16.2361" height="16.2361" fill="white" transform="translate(11.7596 0.278992) rotate(45)"/>
</clipPath>
</defs>
</svg>
