<svg width="28" height="28" viewBox="0 0 28 28" fill="none" xmlns="http://www.w3.org/2000/svg">
<g clip-path="url(#clip0_143_881)">
<path d="M9.43633 21.4321C9.42922 21.3971 9.41883 21.3627 9.40516 21.3293C9.39148 21.2965 9.37453 21.2648 9.35484 21.2353C9.33516 21.2052 9.31219 21.1773 9.28703 21.1521C9.26188 21.127 9.23398 21.104 9.20391 21.0843C9.17438 21.0646 9.14266 21.0477 9.1093 21.034C9.07648 21.0204 9.04203 21.0094 9.00703 21.0029C8.93648 20.9886 8.86375 20.9886 8.79375 21.0029C8.75875 21.0094 8.7243 21.0204 8.69094 21.034C8.65812 21.0477 8.62641 21.0646 8.59687 21.0843C8.5668 21.104 8.53891 21.127 8.51375 21.1521C8.48859 21.1773 8.46563 21.2052 8.44594 21.2353C8.4257 21.2648 8.4093 21.2965 8.39563 21.3293C8.38195 21.3627 8.37102 21.3971 8.36445 21.4321C8.35734 21.4671 8.35352 21.5032 8.35352 21.5388C8.35352 21.5743 8.35734 21.6104 8.36445 21.6454C8.37102 21.6804 8.38195 21.7149 8.39563 21.7477C8.4093 21.7811 8.4257 21.8128 8.44594 21.8423C8.46563 21.8724 8.48859 21.9003 8.51375 21.9254C8.53891 21.9506 8.5668 21.9736 8.59687 21.9932C8.62641 22.013 8.65812 22.0299 8.69094 22.0436C8.7243 22.0573 8.75875 22.0682 8.79375 22.0748C8.82875 22.0819 8.86484 22.0857 8.90039 22.0857C8.93594 22.0857 8.97203 22.0819 9.00703 22.0748C9.04203 22.0682 9.07648 22.0573 9.1093 22.0436C9.14266 22.0299 9.17438 22.0129 9.20391 21.9932C9.23398 21.9736 9.26188 21.9506 9.28703 21.9254C9.31219 21.9003 9.33516 21.8724 9.35484 21.8423C9.37453 21.8128 9.39148 21.7811 9.40516 21.7477C9.41883 21.7149 9.42922 21.6804 9.43633 21.6454C9.44344 21.6104 9.44727 21.5743 9.44727 21.5388C9.44727 21.5032 9.44344 21.4671 9.43633 21.4321Z" fill="#1E1E1E"/>
<path d="M25.1559 21.6006C25.1537 21.5951 25.1515 21.5897 25.1493 21.5843C24.6459 20.4065 23.4654 19.9712 22.0684 20.4484L18.2584 21.502C18.0381 20.8349 17.4887 20.2672 16.7118 19.9789C16.707 19.9772 16.7022 19.9754 16.6973 19.9738L12.5093 18.5523C12.1607 18.1018 11.0688 16.9489 9.02442 16.9489C7.59571 16.9489 6.33183 17.929 5.60875 18.9973H0.546875C0.244836 18.9973 0 19.2421 0 19.5442V26.439C0 26.741 0.244836 26.9859 0.546875 26.9859H3.79843C4.10047 26.9859 4.3453 26.741 4.3453 26.439V25.9668H5.87016C6.1722 25.9668 6.41703 25.722 6.41703 25.4199V25.2626C7.30592 25.3401 7.59828 25.5087 8.41466 25.9795C9.04247 26.3415 9.99135 26.8886 11.7001 27.6569C11.708 27.6605 11.7161 27.6639 11.7241 27.6671C12.0521 27.7961 12.6932 27.9987 13.4836 27.9987C14.0337 27.9987 14.6564 27.9005 15.2954 27.6108L23.7168 24.5955C23.7318 24.5902 23.7466 24.5842 23.761 24.5775C24.5658 24.2072 25.7652 23.1636 25.1559 21.6006ZM3.25155 25.8921H1.09375V20.091H3.25155V25.8921ZM5.32328 24.873H4.3453V20.091H5.32328V24.873ZM23.324 23.5744L14.9064 26.5882C14.899 26.5909 14.889 26.5948 14.8817 26.5978C14.8743 26.6008 14.867 26.6039 14.8597 26.6073C13.6874 27.146 12.573 26.8235 12.1363 26.6537C10.4857 25.911 9.60471 25.403 8.96104 25.0318C8.06613 24.5158 7.63492 24.2671 6.41703 24.1665V19.7619C6.93541 18.9122 7.94068 18.0425 9.02448 18.0425C10.8831 18.0425 11.6706 19.2514 11.7016 19.3002C11.7684 19.4088 11.871 19.4907 11.9917 19.5316L16.338 21.0068C17.0322 21.2673 17.399 21.8618 17.2304 22.4546C17.1526 22.7283 16.9728 22.9554 16.7241 23.0939C16.4777 23.2312 16.1928 23.2652 15.9212 23.1901L11.0216 21.6374C10.7335 21.5461 10.4262 21.7056 10.335 21.9935C10.2437 22.2814 10.4032 22.5888 10.6911 22.68L15.5993 24.2354C15.6045 24.2371 15.6097 24.2386 15.6149 24.2401C15.8109 24.2958 16.0104 24.3234 16.2087 24.3234C16.5717 24.3234 16.9307 24.2309 17.2565 24.0494C17.7604 23.7687 18.1247 23.3085 18.2824 22.7537C18.295 22.7094 18.3062 22.6651 18.3158 22.6208L22.4219 21.4833C23.015 21.2808 23.7934 21.2078 24.14 22.006C24.4988 22.9432 23.5664 23.4587 23.324 23.5744Z" fill="#009393"/>
<path d="M19.6361 7.19375C19.629 7.15875 19.6186 7.12429 19.6044 7.09093C19.5907 7.05812 19.5743 7.0264 19.5541 6.99687C19.5344 6.96679 19.5114 6.9389 19.4863 6.91374C19.4611 6.88859 19.4332 6.86562 19.4031 6.84593C19.3736 6.82624 19.3419 6.80929 19.3091 6.79562C19.2757 6.78195 19.2412 6.77101 19.2068 6.76445C19.1362 6.75023 19.0635 6.75023 18.993 6.76445C18.958 6.77101 18.9235 6.78195 18.8907 6.79562C18.8573 6.80929 18.8256 6.82624 18.7961 6.84593C18.766 6.86562 18.7381 6.88859 18.713 6.91374C18.6878 6.9389 18.6648 6.96679 18.6452 6.99687C18.6255 7.0264 18.6085 7.05812 18.5948 7.09093C18.5812 7.12429 18.5702 7.15875 18.5637 7.19375C18.5566 7.22875 18.5527 7.26484 18.5527 7.30039C18.5527 7.33593 18.5566 7.37203 18.5637 7.40703C18.5702 7.44203 18.5812 7.47648 18.5948 7.50929C18.6085 7.54265 18.6255 7.57437 18.6452 7.6039C18.6648 7.63398 18.6878 7.66187 18.713 7.68703C18.7381 7.71218 18.766 7.73515 18.7961 7.75484C18.8256 7.77453 18.8573 7.79148 18.8907 7.80515C18.9235 7.81882 18.958 7.82921 18.993 7.83632C19.028 7.84343 19.0641 7.84726 19.0996 7.84726C19.1352 7.84726 19.1712 7.84343 19.2068 7.83632C19.2412 7.82921 19.2757 7.81882 19.3091 7.80515C19.3419 7.79148 19.3736 7.77453 19.4031 7.75484C19.4332 7.73515 19.4611 7.71218 19.4863 7.68703C19.5114 7.66187 19.5344 7.63398 19.5541 7.6039C19.5743 7.57437 19.5907 7.54265 19.6044 7.50929C19.6186 7.47648 19.629 7.44203 19.6361 7.40703C19.6432 7.37203 19.6465 7.33593 19.6465 7.30039C19.6465 7.26484 19.6432 7.22875 19.6361 7.19375Z" fill="#1E1E1E"/>
<path d="M27.4532 1.85342H24.2016C23.8996 1.85342 23.6548 2.09826 23.6548 2.4003V2.87247H22.1299C21.8279 2.87247 21.583 3.11731 21.583 3.41935V3.57674C20.6941 3.49914 20.4018 3.33059 19.5855 2.85984C18.9577 2.49781 18.0088 1.95066 16.2999 1.18235C16.292 1.17874 16.284 1.17541 16.2759 1.17224C15.7197 0.953377 14.2619 0.522768 12.7048 1.2284L10.5042 2.01634L8.64928 0.161448C8.43572 -0.0521069 8.08944 -0.0521069 7.87589 0.161448L1.786 6.25128C1.58901 6.44832 1.55122 6.78996 1.786 7.02473L12.1923 17.431C12.3588 17.5976 12.7488 17.648 12.9658 17.431L18.5256 11.8713C18.6701 11.8838 18.8201 11.8905 18.9756 11.8905C20.4044 11.8905 21.6682 10.9104 22.3912 9.84212H27.4532C27.7552 9.84212 28.0001 9.59728 28.0001 9.29524V2.4003C28.0001 2.09826 27.7552 1.85342 27.4532 1.85342ZM8.26253 1.32153L9.50897 2.56797C9.13846 2.79711 8.71009 2.91972 8.26253 2.91972C7.81491 2.91972 7.3866 2.79717 7.01609 2.56797L8.26253 1.32153ZM4.19258 7.88447L2.94614 6.63798L4.19258 5.39154C4.42172 5.76205 4.54433 6.19042 4.54433 6.63798C4.54433 7.08554 4.42177 7.51391 4.19258 7.88447ZM12.5791 16.2709L11.3328 15.0247C12.0937 14.5551 13.0643 14.5551 13.8252 15.0247L12.5791 16.2709ZM14.6132 14.2369C13.4047 13.3602 11.7535 13.3602 10.545 14.2369L4.98046 8.6723C5.40751 8.08496 5.63808 7.37943 5.63808 6.63798C5.63808 5.89647 5.40757 5.191 4.98046 4.60366L6.22826 3.35591C6.81561 3.78296 7.52108 4.01353 8.26258 4.01353C9.00409 4.01353 9.70956 3.78296 10.2969 3.35591L11.4797 4.53874C11.2245 4.57642 10.9756 4.66053 10.7435 4.78987C10.3515 5.00829 10.044 5.33538 9.85246 5.7311C9.23558 5.84534 8.66448 6.14399 8.21648 6.59193C7.00105 7.80742 7.00105 9.78508 8.21654 11.0006C8.82422 11.6083 9.6225 11.9122 10.4208 11.9122C11.2191 11.9122 12.0174 11.6083 12.6252 11.0006C13.0206 10.6052 13.2976 10.1192 13.4363 9.58963L15.2828 10.2163C15.0749 11.1792 15.2878 12.1923 15.8621 12.988L14.6132 14.2369ZM11.2883 8.86037C11.2931 8.86212 11.2979 8.86387 11.3028 8.86551L12.3963 9.23667C12.3137 9.60937 12.1269 9.95204 11.8518 10.2272C11.0627 11.0161 9.7789 11.0162 8.98998 10.2272C8.20095 9.4382 8.20095 8.15441 8.98998 7.36538C9.18029 7.17496 9.4049 7.02615 9.64962 6.92525C9.75058 7.76536 10.3555 8.5142 11.2883 8.86037ZM16.6501 12.1999C16.439 11.8559 16.3195 11.4633 16.3007 11.0626C16.5626 11.252 16.8828 11.4376 17.2651 11.5848L16.6501 12.1999ZM21.583 9.07721C21.0647 9.92694 20.0594 10.7966 18.9756 10.7966C18.7728 10.7966 18.5828 10.7822 18.4051 10.7565C18.4044 10.7564 18.4037 10.7563 18.403 10.7562C17.2219 10.5846 16.5866 9.91338 16.3772 9.6476C16.3661 9.63119 16.3185 9.56901 16.3115 9.55867C16.2478 9.44481 16.1433 9.35327 16.0101 9.30804L11.662 7.8323C10.9681 7.57188 10.6013 6.9777 10.7695 6.3851C10.7696 6.38472 10.7697 6.38434 10.7698 6.38396C10.77 6.38352 10.7701 6.38303 10.7702 6.38259C10.8483 6.1097 11.0278 5.88335 11.2759 5.74515C11.5223 5.60783 11.8072 5.57376 12.0788 5.64907L16.9785 7.2017C17.2664 7.29308 17.5738 7.1335 17.665 6.84557C17.7562 6.55764 17.5968 6.2503 17.3089 6.15903L13.4121 4.92418L13.3781 4.89017C13.3778 4.88984 13.3774 4.88946 13.3771 4.88913L11.3596 2.87171L13.0937 2.25078C13.0995 2.24865 13.1067 2.24597 13.1125 2.24362C13.114 2.24302 13.1169 2.24192 13.1183 2.24132C13.1257 2.23831 13.1331 2.23514 13.1403 2.23181C14.3126 1.69303 15.4269 2.01552 15.8637 2.18538C17.5143 2.92809 18.3954 3.43608 19.039 3.80724C19.9339 4.32333 20.3651 4.57199 21.583 4.67257V9.07721ZM23.6548 8.74826H22.6768V3.96622H23.6548V8.74826ZM26.9063 8.74826H24.7485V2.94717H26.9063V8.74826Z" fill="#1E1E1E"/>
</g>
<defs>
<clipPath id="clip0_143_881">
<rect width="28" height="28" fill="white"/>
</clipPath>
</defs>
</svg>
