<svg width="32" height="20" viewBox="0 0 32 20" fill="none" xmlns="http://www.w3.org/2000/svg">
<path d="M26.2131 16.461C26.2131 15.6206 25.5318 14.9393 24.6913 14.9393C23.8509 14.9393 23.1696 15.6206 23.1696 16.461C23.1696 17.3014 23.8509 17.9827 24.6913 17.9827L26.2131 16.461ZM26.2131 16.461C26.2131 17.3015 25.5318 17.9828 24.6913 17.9827L26.2131 16.461ZM24.6913 13.4103C23.0064 13.4103 21.6406 14.7761 21.6406 16.461C21.6406 18.1459 23.0065 19.5118 24.6913 19.5118C26.3762 19.5118 27.7421 18.1459 27.7421 16.461C27.7421 14.7761 26.3762 13.4103 24.6913 13.4103Z" fill="#009393" stroke="white" stroke-width="0.3"/>
<path d="M17.3757 13.4103C15.6908 13.4103 14.3249 14.7761 14.3249 16.461C14.3249 18.1459 15.6908 19.5118 17.3757 19.5118C19.0606 19.5118 20.4264 18.1459 20.4264 16.461C20.4264 14.7761 19.0606 13.4103 17.3757 13.4103ZM17.3757 14.9393C18.2161 14.9393 18.8974 15.6206 18.8974 16.461C18.8974 17.3015 18.2161 17.9827 17.3757 17.9827C16.5352 17.9827 15.8539 17.3014 15.8539 16.461C15.8539 15.6206 16.5352 14.9393 17.3757 14.9393Z" fill="#009393" stroke="white" stroke-width="0.3"/>
<path d="M2.7432 11.124C2.32097 11.124 1.9787 11.4662 1.9787 11.8885V14.1747C1.9787 14.597 2.32097 14.9392 2.7432 14.9392C3.16544 14.9392 3.50771 14.597 3.50771 14.1747V11.8885C3.50771 11.4662 3.16544 11.124 2.7432 11.124Z" fill="black" stroke="white" stroke-width="0.3"/>
<path d="M29.0573 15.0114L29.0573 15.0114C29.2668 15.378 29.7338 15.5053 30.1004 15.2958C30.467 15.0864 30.5943 14.6194 30.3849 14.2527C30.3849 14.2527 30.3849 14.2527 30.3849 14.2527L28.5558 11.052L28.5558 11.052C28.3464 10.6854 27.8794 10.5581 27.5128 10.7675C27.1462 10.977 27.0188 11.444 27.2283 11.8106L29.0573 15.0114Z" fill="black" stroke="white" stroke-width="0.3"/>
<path d="M13.0094 15.0113L13.0094 15.0113L14.8384 11.8106L14.8384 11.8106C15.048 11.444 14.9206 10.977 14.554 10.7675L14.554 10.7675C14.1874 10.558 13.7204 10.6854 13.5109 11.052L13.5109 11.052L11.6819 14.2527L11.6819 14.2527C11.4724 14.6193 11.5998 15.0863 11.9664 15.2958L11.9664 15.2958C12.333 15.5053 12.8 15.3779 13.0094 15.0113Z" fill="black" stroke="white" stroke-width="0.3"/>
<path d="M1.67882 1.82902V1.67902H1.82882H29.2638H29.4138V1.82902V10.5168V10.6668H29.2638H1.82882H1.67882V10.5168V1.82902ZM30.9428 11.4312V0.91451C30.9428 0.492351 30.6005 0.150061 30.1783 0.15C30.1783 0.15 30.1783 0.15 30.1782 0.15H0.91431C0.492077 0.15 0.149801 0.492274 0.149801 0.91451V11.4312C0.149801 11.8535 0.492077 12.1957 0.91431 12.1957H30.1783C30.6005 12.1957 30.9428 11.8535 30.9428 11.4312Z" fill="black" stroke="white" stroke-width="0.3"/>
</svg>
