<svg width="34" height="25" viewBox="0 0 34 25" fill="none" xmlns="http://www.w3.org/2000/svg">
<path d="M27.1856 4.97435L27.1302 4.86419H27.0069H22.2674V3.13967H27.662C27.9879 3.13967 28.286 3.32335 28.4326 3.61458L31.5295 9.77389L29.9882 10.5488L27.1856 4.97435Z" fill="#1E1E1E" stroke="white" stroke-width="0.4"/>
<path d="M14.7251 20.8335V19.109H22.3629V20.8335H14.7251Z" fill="#1E1E1E" stroke="white" stroke-width="0.4"/>
<path d="M4.36301 19.109H8.04546C8.52177 19.109 8.90776 19.495 8.90776 19.9712C8.90776 20.4475 8.52181 20.8335 8.04553 20.8335H4.36301C3.88678 20.8335 3.50078 20.4475 3.50078 19.9712C3.50078 19.495 3.88673 19.109 4.36301 19.109Z" fill="#1E1E1E" stroke="white" stroke-width="0.4"/>
<path d="M7.1834 19.9358C7.1834 17.7033 8.99993 15.8867 11.2324 15.8867C13.465 15.8867 15.2815 17.7033 15.2815 19.9358C15.2815 22.1683 13.465 23.9848 11.2324 23.9848C8.99993 23.9848 7.1834 22.1683 7.1834 19.9358ZM8.90792 19.9358C8.90792 21.2179 9.95034 22.2603 11.2324 22.2603C12.5146 22.2603 13.557 21.218 13.557 19.9358C13.557 18.6537 12.5142 17.6113 11.2324 17.6113C9.95034 17.6113 8.90792 18.6537 8.90792 19.9358Z" fill="#1E1E1E" stroke="white" stroke-width="0.4"/>
<path d="M31.5294 9.84639L31.5296 9.84658L33.6189 12.5376C33.7362 12.6888 33.8 12.8751 33.8 13.0665V19.9711C33.8 20.4473 33.414 20.8333 32.9377 20.8333H28.9366C28.4603 20.8333 28.0743 20.4474 28.0743 19.9711C28.0743 19.4948 28.4603 19.1089 28.9366 19.1089H31.8755H32.0755V18.9088V13.4304V13.3619L32.0335 13.3078L30.4865 11.315L30.4265 11.2376H30.3285H22.0673C21.5911 11.2376 21.2051 10.8517 21.2051 10.3754V2.93958V2.73958H21.0051H4.36301C3.88679 2.73958 3.50078 2.35358 3.50078 1.87735C3.50078 1.40112 3.88673 1.01512 4.36301 1.01512H22.0674C22.5436 1.01512 22.9296 1.40107 22.9296 1.87735V9.31316V9.51316H23.1296H30.8487C31.1153 9.51316 31.3667 9.63625 31.5294 9.84639Z" fill="#1E1E1E" stroke="white" stroke-width="0.4"/>
<path d="M21.7007 19.9358C21.7007 17.7033 23.5173 15.8867 25.7498 15.8867C27.9823 15.8867 29.7988 17.7033 29.7988 19.9358C29.7988 22.1683 27.9827 23.9848 25.7498 23.9848C23.5173 23.9848 21.7007 22.1683 21.7007 19.9358ZM23.4253 19.9358C23.4253 21.2179 24.4677 22.2603 25.7498 22.2603C27.0319 22.2603 28.0743 21.218 28.0743 19.9358C28.0743 18.6537 27.0319 17.6113 25.7498 17.6113C24.4677 17.6113 23.4253 18.6537 23.4253 19.9358Z" fill="#1E1E1E" stroke="white" stroke-width="0.4"/>
<path d="M8.83695 14.5891V14.5891C8.83695 15.0653 8.451 15.4513 7.97472 15.4513H3.08835C2.61212 15.4513 2.22612 15.0654 2.22612 14.5891C2.22612 14.1129 2.61207 13.7269 3.08835 13.7269H7.97478C8.45101 13.7269 8.837 14.1129 8.83695 14.5891Z" fill="#009393" stroke="white" stroke-width="0.4"/>
<path d="M1.35325 9.54857H10.4179C10.8942 9.54857 11.2801 9.93462 11.2801 10.4109C11.2801 10.8871 10.8942 11.2731 10.4179 11.2731H1.35325C0.877012 11.2731 0.491016 10.8872 0.491016 10.4109C0.491016 9.93457 0.877028 9.54857 1.35325 9.54857Z" fill="#009393" stroke="white" stroke-width="0.4"/>
<path d="M13.0152 6.23259V6.23261C13.0152 6.70884 12.6293 7.09484 12.153 7.09484H3.08835C2.61212 7.09484 2.22612 6.70889 2.22612 6.23261C2.22612 5.75638 2.61207 5.37038 3.08835 5.37038H12.153C12.6293 5.37038 13.0153 5.75639 13.0152 6.23259Z" fill="#009393" stroke="white" stroke-width="0.4"/>
</svg>
