<svg width="14" height="14" viewBox="0 0 14 14" fill="none" xmlns="http://www.w3.org/2000/svg">
<path d="M13.3636 7.72414C13.1949 7.72414 13.033 7.79026 12.9137 7.90795C12.7943 8.02565 12.7273 8.18528 12.7273 8.35172V10.9957C12.7268 11.4595 12.5397 11.9041 12.2073 12.232C11.8748 12.5599 11.4239 12.7443 10.9537 12.7448H3.04627C2.57605 12.7443 2.12524 12.5599 1.79274 12.232C1.46025 11.9041 1.27323 11.4595 1.27273 10.9957V8.35172C1.27273 8.18528 1.20568 8.02565 1.08634 7.90795C0.966999 7.79026 0.805138 7.72414 0.636364 7.72414C0.467589 7.72414 0.305728 7.79026 0.186387 7.90795C0.0670452 8.02565 0 8.18528 0 8.35172V10.9957C0.000842282 11.7923 0.322058 12.5559 0.893163 13.1192C1.46427 13.6824 2.23861 13.9992 3.04627 14H10.9537C11.7614 13.9992 12.5357 13.6824 13.1068 13.1192C13.6779 12.5559 13.9992 11.7923 14 10.9957V8.35172C14 8.18528 13.933 8.02565 13.8136 7.90795C13.6943 7.79026 13.5324 7.72414 13.3636 7.72414Z" fill="black"/>
<path d="M3.70901 4.92428L6.37832 2.18125V10.2231C6.37832 10.3926 6.44383 10.5551 6.56044 10.6749C6.67704 10.7948 6.83519 10.8621 7.0001 10.8621C7.16501 10.8621 7.32316 10.7948 7.43977 10.6749C7.55637 10.5551 7.62188 10.3926 7.62188 10.2231V2.18125L10.2912 4.92428C10.4085 5.04067 10.5655 5.10507 10.7285 5.10361C10.8916 5.10216 11.0475 5.03496 11.1628 4.91649C11.2781 4.79803 11.3435 4.63777 11.3449 4.47024C11.3463 4.30271 11.2836 4.1413 11.1704 4.0208L7.4397 0.187077C7.3231 0.0672916 7.16497 0 7.0001 0C6.83523 0 6.6771 0.0672916 6.5605 0.187077L2.82982 4.0208C2.71655 4.1413 2.65388 4.30271 2.6553 4.47024C2.65671 4.63777 2.72211 4.79803 2.83739 4.91649C2.95267 5.03496 3.10862 5.10216 3.27165 5.10361C3.43468 5.10507 3.59174 5.04067 3.70901 4.92428Z" fill="black"/>
</svg>
