<svg width="23" height="28" viewBox="0 0 23 28" fill="none" xmlns="http://www.w3.org/2000/svg">
<path d="M21.3878 20.7711L21.3879 20.7713L22.288 25.177C22.288 25.177 22.288 25.1771 22.288 25.1771C22.4247 25.8607 22.2884 26.5425 21.9265 27.0876C21.5185 27.5841 20.8848 27.9 20.2067 27.9H14.3319H8.17281H2.29802C1.6619 27.9 1.02813 27.6271 0.622459 27.1313C0.214472 26.6326 0.0321429 25.9506 0.122796 25.3144C0.122833 25.3142 0.12287 25.3139 0.122908 25.3136L0.78592 21.1462C1.48876 16.7886 5.23709 13.6025 9.64151 13.6025H12.5789C16.8432 13.6025 20.5446 16.6017 21.3878 20.7711ZM12.5789 14.8239H12.4789V14.8712H9.64151H9.21511H9.09313L9.11706 14.9908C9.31536 15.9823 10.1596 16.7294 11.205 16.7294C12.2503 16.7294 13.0946 15.9823 13.2929 14.9908L13.3116 14.8973L13.2191 14.8742C13.0176 14.8238 12.7707 14.8238 12.5852 14.8239L12.5789 14.8239ZM2.25065 26.6313H2.35065V26.5839H8.26757H8.35723L8.36697 26.4948L9.3619 17.3983L9.3684 17.3389L9.31914 17.3051C8.58077 16.7974 8.03017 16.0151 7.89269 15.0985L7.87648 14.9905L7.77028 15.0162C4.79367 15.7363 2.49031 18.1845 1.96254 21.3031L1.96253 21.3031L1.96238 21.3041L1.2994 25.4714C1.24869 25.7278 1.29667 26.0432 1.50799 26.2616C1.67422 26.5297 1.94704 26.6313 2.25065 26.6313ZM9.58944 26.5208L9.57778 26.6313H9.68889H12.721H12.8321L12.8205 26.5208L11.9203 17.9929L11.9109 17.9034H11.8209H11.2523H11.205H11.1576H10.5891H10.4991L10.4896 17.9929L9.58944 26.5208ZM14.0429 26.5422L14.0527 26.6313H14.1424H20.1119C20.432 26.6313 20.6929 26.4708 20.8933 26.2704C21.1103 26.0533 21.1651 25.7307 21.0609 25.4605L20.1626 21.0636C20.1626 21.0635 20.1626 21.0633 20.1626 21.0632C19.5863 18.1346 17.378 15.8794 14.5953 15.1117L14.4874 15.0819L14.47 15.1925C14.3323 16.0646 13.8271 16.8462 13.0908 17.3524L13.0415 17.3863L13.048 17.4457L14.0429 26.5422Z" fill="#1E1E1E" stroke="white" stroke-width="0.2"/>
<path d="M17.4062 6.25381C17.4062 9.65712 14.6083 12.455 11.205 12.455C7.80069 12.455 5.00381 9.70352 5.00381 6.30118C5.00381 2.89787 7.80168 0.1 11.205 0.1C14.6093 0.1 17.4062 2.85147 17.4062 6.25381ZM16.1849 6.30118C16.1849 3.54545 13.9607 1.32132 11.205 1.32132C8.45054 1.32132 6.22513 3.4968 6.22513 6.25381C6.22513 9.00954 8.44926 11.2337 11.205 11.2337C13.9595 11.2337 16.1849 9.05819 16.1849 6.30118Z" fill="#009393" stroke="white" stroke-width="0.2"/>
</svg>
