<svg width="25" height="17" viewBox="0 0 25 17" fill="none" xmlns="http://www.w3.org/2000/svg">
<path d="M5.20451 12.4357C3.94381 12.4357 2.92212 13.4571 2.92212 14.7179C2.92212 15.9788 3.94381 17 5.20451 17C6.46569 17 7.48704 15.9788 7.48704 14.7179C7.48704 13.4571 6.46569 12.4357 5.20451 12.4357ZM5.20451 15.71C4.65647 15.71 4.21241 15.2659 4.21241 14.7179C4.21241 14.1695 4.65647 13.7257 5.20451 13.7257C5.75262 13.7257 6.19695 14.1695 6.19695 14.7179C6.19695 15.266 5.75262 15.71 5.20451 15.71Z" fill="#009393"/>
<path d="M17.2399 12.4357C15.9792 12.4357 14.9575 13.4571 14.9575 14.7179C14.9575 15.9788 15.9791 17 17.2399 17C18.501 17 19.5224 15.9788 19.5224 14.7179C19.5224 13.4571 18.501 12.4357 17.2399 12.4357ZM17.2399 15.71C16.6918 15.71 16.2477 15.2659 16.2477 14.7179C16.2477 14.1695 16.6918 13.7257 17.2399 13.7257C17.788 13.7257 18.2324 14.1695 18.2324 14.7179C18.2324 15.266 17.788 15.71 17.2399 15.71Z" fill="#009393"/>
<path d="M0.681901 9.72492H11.2045C11.5796 9.72492 11.8864 9.41807 11.8864 9.04302V4.98537C11.8864 4.61032 11.5796 4.30347 11.2045 4.30347H0.681901C0.306855 4.30347 0 4.61032 0 4.98537V9.04302C0 9.41807 0.306855 9.72492 0.681901 9.72492Z" fill="#009393"/>
<path d="M8.09474 3.87777H11.191C11.566 3.87777 11.8729 3.57091 11.8729 3.19587V0.681901C11.8729 0.306856 11.566 0 11.191 0H8.09474C7.7197 0 7.41284 0.306856 7.41284 0.681901V3.19587C7.41284 3.57091 7.7197 3.87777 8.09474 3.87777Z" fill="#009393"/>
<path d="M0.681901 3.8778H6.28597C6.66101 3.8778 6.96787 3.57095 6.96787 3.1959V1.78505C6.96787 1.41 6.66101 1.10315 6.28597 1.10315H0.681901C0.306856 1.10315 0 1.41 0 1.78505V3.1959C0 3.57095 0.306856 3.8778 0.681901 3.8778Z" fill="#009393"/>
<path d="M21.7122 8.82733C20.8754 8.60974 20.3965 8.47302 20.0678 7.83831L18.969 5.61353C18.6403 4.97889 17.7866 4.45962 17.072 4.45962H14.9575V3.82839C14.9575 3.45334 14.6506 3.14648 14.2756 3.14648H12.9941C12.6191 3.14648 12.3122 3.45334 12.3122 3.82839V9.75615C12.1764 10.0308 11.8939 10.2212 11.5682 10.2212H3.47538C3.45601 10.2212 3.43174 10.2222 3.40364 10.2237H2.07277V10.2215H1.51941C1.48593 10.2166 0.632804 10.2198 0.632804 10.2198C0.257759 10.2198 0 10.5201 0 10.8951V11.5365V12.7898V13.2923V13.5406V14.1737C0 14.5488 0.306856 14.8556 0.681901 14.8556H1.31511H1.46118H2.23411C2.232 14.8099 2.23064 14.764 2.23064 14.7178C2.23064 13.078 3.56477 11.744 5.20475 11.744C6.84472 11.744 8.17893 13.078 8.17893 14.7178C8.17893 14.764 8.17749 14.81 8.17545 14.8556H14.0518C14.1257 14.8556 14.1981 14.8487 14.2688 14.8369C14.2673 14.7973 14.2658 14.7577 14.2658 14.7178C14.2658 13.078 15.5999 11.744 17.24 11.744C18.8799 11.744 20.2142 13.078 20.2142 14.7178C20.2142 14.764 20.2128 14.81 20.2107 14.8556H22.9267C23.6415 14.8556 24.2263 14.2708 24.2263 13.556V11.087C24.2262 9.00777 22.4069 9.00777 21.7122 8.82733ZM14.9576 8.71155V7.96746V5.36307H16.6101C17.246 5.36307 18.0055 5.82513 18.2981 6.38981L19.2758 8.36937C19.3473 8.50759 19.4272 8.61895 19.5173 8.71162L14.9576 8.71155Z" fill="#009393"/>
</svg>
