<svg width="17" height="17" viewBox="0 0 17 17" fill="none" xmlns="http://www.w3.org/2000/svg">
<g clip-path="url(#clip0_141_601)">
<path d="M10.448 0H15.7605C16.444 0 17 0.556023 17 1.23954V4.42704C17 5.11069 16.444 5.66671 15.7605 5.66671H10.448C9.76431 5.66671 9.20829 5.11069 9.20829 4.42704V1.23954C9.20829 0.556023 9.76431 0 10.448 0Z" fill="#009393"/>
<path d="M10.448 7.08325H15.7605C16.444 7.08325 17 7.63927 17 8.32292V15.7604C17 16.4439 16.444 17 15.7605 17H10.448C9.76431 17 9.20829 16.4439 9.20829 15.7604V8.32292C9.20829 7.63927 9.76431 7.08325 10.448 7.08325Z" fill="#009393"/>
<path d="M1.23958 11.3333H6.55208C7.23573 11.3333 7.79175 11.8893 7.79175 12.5729V15.7604C7.79175 16.4439 7.23573 17 6.55208 17H1.23958C0.556061 17 3.8147e-05 16.4439 3.8147e-05 15.7604V12.5729C3.8147e-05 11.8893 0.556061 11.3333 1.23958 11.3333Z" fill="#009393"/>
<path d="M1.23958 0H6.55208C7.23573 0 7.79175 0.556023 7.79175 1.23954V8.67704C7.79175 9.36069 7.23573 9.91671 6.55208 9.91671H1.23958C0.556061 9.91671 3.8147e-05 9.36069 3.8147e-05 8.67704V1.23954C3.8147e-05 0.556023 0.556061 0 1.23958 0Z" fill="#009393"/>
</g>
<defs>
<clipPath id="clip0_141_601">
<rect width="17" height="17" fill="white" transform="matrix(-1 0 0 1 17 0)"/>
</clipPath>
</defs>
</svg>
