<svg width="26" height="17" viewBox="0 0 26 17" fill="none" xmlns="http://www.w3.org/2000/svg">
<path d="M25.9996 8.75641C25.9996 8.75155 25.9994 8.74668 25.9993 8.74182C25.9922 8.41588 25.7305 8.15618 25.4007 8.15618H25.2436L22.8164 3.46207C22.714 3.26386 22.5098 3.14044 22.2843 3.14038L18.1405 3.13952L18.2986 1.886C18.3437 1.38506 18.1889 0.91207 17.8626 0.554062C17.5368 0.196793 17.0821 0 16.582 0H3.72103C3.39766 0 3.12297 0.250286 3.09214 0.57296L2.96322 1.60574H10.2908C10.7666 1.60574 11.1422 1.99157 11.1297 2.46752C11.1173 2.94347 10.7215 3.3293 10.2457 3.3293H7.80153C7.80196 3.33053 7.80239 3.33176 7.80282 3.33293H0.625416C0.288938 3.33293 0.00901211 3.60574 0.000212499 3.94233C-0.00858711 4.27892 0.257001 4.55173 0.593478 4.55173H10.0956C10.5367 4.61969 10.8662 5.00127 10.8541 5.46325C10.8408 5.97059 10.4209 6.38196 9.9146 6.38621H3.36363C3.02377 6.38621 2.74108 6.6618 2.73215 7.00177C2.72323 7.34174 2.99153 7.61732 3.33139 7.61732H9.80519C10.2527 7.67968 10.5888 8.06434 10.5767 8.53081C10.5633 9.04074 10.1392 9.45414 9.62945 9.45414H2.20251L1.57848 9.45482C1.23862 9.45482 0.955924 9.7304 0.947001 10.0704C0.938078 10.4103 1.20631 10.6859 1.54624 10.6859H2.0848L1.87416 12.8907C1.82899 13.3916 1.98382 13.8646 2.3102 14.2226C2.63585 14.5799 3.09066 14.7767 3.59076 14.7767H4.05536C4.27676 16.0431 5.3721 17 6.71191 17C8.05173 17 9.19716 16.0431 9.48471 14.7767H15.2825C15.7513 14.7767 16.1951 14.5974 16.5432 14.3039C16.8614 14.6094 17.2833 14.7767 17.744 14.7767H17.8394C18.0607 16.0431 19.156 17 20.4959 17C21.8357 17 22.9812 16.0431 23.2687 14.7767H23.6514C24.6483 14.7767 25.5325 13.966 25.6223 12.9695L25.9973 8.81409C25.9978 8.80849 25.9976 8.80295 25.9979 8.79728C25.9986 8.78873 25.9997 8.78035 26 8.77174C26.0001 8.76657 25.9996 8.76158 25.9996 8.75641ZM6.74416 15.7689C5.89589 15.7689 5.2238 15.0786 5.24601 14.2301C5.26822 13.3815 5.97644 12.6911 6.82471 12.6911C7.67298 12.6911 8.34501 13.3815 8.3228 14.2301C8.30058 15.0786 7.59243 15.7689 6.74416 15.7689ZM20.5282 15.7689C19.6799 15.7689 19.0079 15.0786 19.03 14.2301C19.0522 13.3815 19.7604 12.6911 20.6087 12.6911C21.457 12.6911 22.1291 13.3815 22.1068 14.2301C22.0846 15.0786 21.3764 15.7689 20.5282 15.7689ZM24.3963 12.8907C24.3643 13.2457 24.038 13.5456 23.6837 13.5456H23.2698C22.9957 12.3482 21.9317 11.46 20.6409 11.46C19.3501 11.46 18.2396 12.3482 17.9029 13.5456H17.7762C17.6198 13.5456 17.4802 13.487 17.3831 13.3803C17.2853 13.2731 17.2393 13.1272 17.2535 12.9694L18.0294 4.37063L19.8114 4.371L19.5289 7.50123C19.4837 8.00211 19.6385 8.4751 19.9648 8.83311C20.2904 9.1905 20.7454 9.38735 21.2455 9.38735H24.7123L24.3963 12.8907Z" fill="#009393"/>
</svg>
