<svg width="17" height="17" viewBox="0 0 17 17" fill="none" xmlns="http://www.w3.org/2000/svg">
<path d="M0.458344 7.39418L0.459511 7.39301L7.39416 0.458618C7.68975 0.162903 8.08274 0 8.50076 0C8.91878 0 9.31177 0.162773 9.60749 0.458488L16.5385 7.38938C16.5408 7.39172 16.5432 7.39418 16.5455 7.39651C17.1525 8.00701 17.1515 8.99753 16.5425 9.60647C16.2643 9.8848 15.8969 10.046 15.504 10.0629C15.4881 10.0644 15.472 10.0652 15.4558 10.0652H15.1794V15.1685C15.1794 16.1784 14.3577 17 13.3476 17H10.6346C10.3596 17 10.1365 16.777 10.1365 16.502V12.501C10.1365 12.0402 9.7617 11.6653 9.30088 11.6653H7.70064C7.23982 11.6653 6.86499 12.0402 6.86499 12.501V16.502C6.86499 16.777 6.64204 17 6.36694 17H3.65388C2.64378 17 1.82214 16.1784 1.82214 15.1685V10.0652H1.56585C1.14796 10.0652 0.754967 9.90244 0.459122 9.60673C-0.150467 8.99675 -0.150726 8.00455 0.458344 7.39418Z" fill="#009393"/>
</svg>
