<svg width="15" height="17" viewBox="0 0 15 17" fill="none" xmlns="http://www.w3.org/2000/svg">
<path fill-rule="evenodd" clip-rule="evenodd" d="M1.66667 0H13.3333C14.25 0 15 0.770781 15 1.71285V14.7305C15 15.9295 13.8333 16.7859 12.75 16.3577L11.4167 15.8438C11 15.6725 10.5833 15.6725 10.1667 15.9295L8.16667 16.8715C7.75 17.0428 7.25 17.0428 6.83333 16.8715L4.83333 15.9295C4.41667 15.7582 4 15.7582 3.58333 15.8438L2.25 16.272C1.16667 16.7003 0 15.8438 0 14.7305V1.71285C0 0.770781 0.75 0 1.66667 0ZM11.6667 4.96725C12 4.96725 12.3333 4.71033 12.3333 4.28212C12.3333 3.8539 12 3.59698 11.6667 3.59698H3.33333C3 3.59698 2.66667 3.93955 2.66667 4.28212C2.66667 4.62469 3 4.96725 3.33333 4.96725H11.6667ZM12.3333 7.70781C12.3333 8.05038 12.0833 8.39295 11.6667 8.39295H3.33333C3 8.39295 2.66667 8.13602 2.66667 7.70781C2.66667 7.2796 2.91667 7.02267 3.33333 7.02267H11.6667C12 7.02267 12.3333 7.36524 12.3333 7.70781ZM7.5 11.8186C7.83333 11.8186 8.16667 11.5617 8.16667 11.1335C8.16667 10.7053 7.91667 10.4484 7.5 10.4484H3.33333C3 10.4484 2.66667 10.7053 2.66667 11.1335C2.66667 11.5617 2.91667 11.8186 3.33333 11.8186H7.5Z" fill="#009393"/>
</svg>
